<?xml version="1.0" standalone="no"?>
<!DOCTYPE svg PUBLIC "-//W3C//DTD SVG 20010904//EN"
 "http://www.w3.org/TR/2001/REC-SVG-20010904/DTD/svg10.dtd">
<svg version="1.0" xmlns="http://www.w3.org/2000/svg"
 width="2356.000000pt" height="498.000000pt" viewBox="0 0 2356.000000 498.000000"
 preserveAspectRatio="xMidYMid meet">
<metadata>
Created by potrace 1.16, written by Peter Selinger 2001-2019
</metadata>
<g transform="translate(0.000000,498.000000) scale(0.100000,-0.100000)"
fill="#ffffff" stroke="none">
<path d="M14125 4649 c-22 -11 -56 -34 -75 -53 -19 -18 -55 -48 -80 -67 -25
-18 -48 -38 -52 -44 -4 -5 -13 -19 -20 -29 -7 -11 -31 -40 -53 -66 -22 -25
-65 -81 -95 -124 -30 -42 -81 -113 -112 -156 -32 -44 -66 -95 -75 -114 -10
-18 -35 -59 -55 -90 -21 -30 -51 -82 -67 -114 -16 -32 -49 -87 -72 -122 -24
-36 -61 -99 -82 -140 -21 -41 -53 -102 -71 -135 -55 -103 -83 -158 -114 -225
-71 -154 -92 -204 -92 -227 0 -13 -9 -36 -20 -51 -23 -31 -70 -171 -70 -207 0
-14 -4 -34 -10 -45 -5 -11 -14 -29 -20 -40 -5 -11 -10 -61 -10 -110 0 -104 11
-135 66 -177 51 -38 156 -46 209 -14 20 11 43 21 52 21 9 0 46 24 82 53 36 29
83 61 103 72 21 11 57 37 79 57 23 21 47 38 54 38 11 0 118 91 156 132 9 10
21 18 26 18 5 0 20 11 33 25 36 38 49 14 17 -29 -15 -19 -27 -37 -27 -41 0 -3
-21 -35 -47 -70 -27 -35 -64 -90 -83 -121 -19 -31 -40 -62 -46 -68 -5 -6 -32
-42 -59 -81 -86 -124 -127 -179 -160 -215 -18 -19 -44 -53 -58 -75 -13 -22
-33 -50 -43 -62 -11 -12 -35 -45 -54 -72 -19 -28 -40 -51 -47 -51 -6 0 -21 14
-33 31 -12 17 -46 41 -75 55 -65 29 -127 25 -195 -15 -25 -14 -61 -33 -80 -42
-19 -9 -56 -38 -82 -65 -26 -27 -63 -65 -84 -84 -47 -44 -135 -155 -160 -200
-10 -19 -34 -54 -52 -79 -18 -24 -47 -70 -62 -102 -16 -32 -34 -60 -40 -64 -5
-3 -10 -16 -10 -28 0 -12 -9 -33 -20 -47 -11 -14 -20 -33 -20 -44 0 -10 -9
-35 -19 -55 -37 -69 -54 -238 -28 -272 83 -109 252 1 570 372 21 24 64 71 95
104 32 33 84 93 115 133 32 39 64 72 72 72 9 0 16 -16 20 -48 3 -26 10 -55 16
-64 5 -10 9 -27 9 -39 0 -24 40 -76 79 -101 18 -12 46 -18 87 -18 59 0 84 7
181 51 23 10 46 19 51 19 5 0 23 13 40 30 17 16 44 33 59 36 15 4 46 22 67 41
54 45 70 29 35 -35 -14 -26 -36 -78 -49 -117 -12 -38 -26 -78 -32 -88 -5 -10
-12 -47 -15 -82 -6 -61 -5 -65 25 -94 36 -36 43 -37 142 -12 92 23 175 55 208
81 14 11 31 20 38 20 7 0 18 9 24 19 5 11 27 25 47 31 21 7 55 25 76 42 20 16
52 36 70 44 50 24 105 58 135 86 15 14 45 32 67 39 22 8 59 32 82 54 23 23 62
52 85 65 40 22 250 159 273 178 6 5 42 35 80 68 39 33 85 70 104 83 52 37 131
113 131 126 0 17 46 58 60 53 7 -2 -14 -42 -51 -97 -35 -51 -68 -100 -74 -109
-5 -9 -27 -42 -48 -74 -21 -32 -41 -66 -45 -75 -4 -10 -28 -49 -53 -88 -25
-38 -61 -99 -80 -135 -20 -36 -41 -74 -47 -85 -10 -19 -64 -135 -83 -180 -7
-18 -13 -64 -10 -91 1 -16 47 -34 84 -34 22 0 47 12 82 40 28 22 75 57 105 78
30 22 66 51 80 64 14 14 43 35 65 46 22 12 58 39 80 60 22 22 51 42 63 46 12
4 30 18 38 31 9 14 39 40 67 59 29 19 70 53 92 76 22 23 72 67 110 98 39 31
104 90 145 130 41 41 106 99 143 129 37 30 78 71 91 91 13 20 37 49 52 63 16
14 38 37 50 50 32 36 122 119 129 119 4 0 16 11 27 25 11 14 25 25 32 25 8 0
30 16 51 35 21 19 42 32 47 29 11 -7 6 -15 -54 -90 -26 -34 -48 -66 -48 -72 0
-5 -16 -24 -35 -43 -19 -19 -35 -38 -35 -43 0 -5 -18 -32 -39 -60 -21 -28 -49
-69 -61 -91 -12 -22 -26 -42 -30 -45 -11 -7 -63 -93 -105 -174 -20 -39 -45
-82 -56 -97 -27 -38 -69 -153 -69 -189 0 -42 16 -77 42 -91 49 -26 195 -8 263
33 17 9 75 40 131 69 55 28 112 60 125 72 14 12 32 27 41 32 57 37 111 75 160
115 31 25 76 59 99 75 62 43 156 127 254 224 51 51 90 70 108 52 11 -11 6 -21
-69 -174 -24 -49 -44 -99 -44 -112 0 -13 -15 -41 -32 -63 -36 -43 -71 -97
-135 -212 -56 -98 -63 -115 -63 -154 0 -71 46 -73 177 -10 52 26 109 59 127
74 17 14 56 43 86 63 30 19 68 49 84 66 15 16 49 35 74 43 26 8 64 31 91 55
25 24 55 43 66 43 11 0 41 20 68 45 26 24 62 52 80 61 17 9 46 29 62 44 17 15
50 35 74 44 24 9 51 26 60 38 10 11 23 19 30 17 8 -3 -13 -43 -60 -114 -40
-61 -80 -132 -90 -159 -10 -27 -23 -52 -28 -55 -17 -11 -32 -64 -26 -90 7 -27
27 -46 62 -61 30 -12 187 21 259 55 29 14 57 25 62 25 4 0 26 13 48 30 21 16
48 30 60 30 24 0 81 26 90 42 4 5 23 18 43 27 32 15 104 61 168 107 23 16 23
16 11 -17 -6 -19 -16 -41 -23 -49 -14 -16 -85 -183 -104 -241 -15 -49 -14
-114 3 -147 31 -58 78 -91 146 -102 132 -21 300 -8 385 30 11 5 34 11 50 14
104 18 140 27 161 41 13 8 36 15 51 15 15 0 66 16 113 35 46 19 91 35 100 35
9 0 33 9 55 20 22 11 47 20 56 20 9 0 27 8 40 18 13 10 67 36 119 57 105 43
160 72 160 86 0 5 9 9 21 9 25 0 20 -22 -22 -91 -16 -25 -29 -51 -29 -56 0 -5
-9 -18 -20 -28 -11 -10 -20 -24 -20 -30 0 -15 -36 -106 -63 -161 -23 -46 -19
-77 16 -117 14 -17 33 -27 50 -27 35 0 127 29 147 46 8 6 47 28 85 46 93 46
180 93 213 117 15 10 45 28 67 39 22 11 56 34 75 51 19 17 55 43 80 58 25 15
70 47 100 72 50 40 55 43 58 24 3 -22 -13 -62 -53 -128 -18 -31 -24 -55 -24
-106 -1 -59 2 -68 27 -91 38 -37 111 -54 165 -39 85 24 213 64 242 76 17 7 41
16 55 20 14 4 43 17 65 30 22 12 57 28 78 34 20 7 37 16 37 20 0 4 19 18 43
31 23 13 55 34 71 47 16 13 50 35 75 48 25 12 58 37 74 54 15 17 32 31 38 31
13 0 97 76 179 163 52 54 96 83 54 35 -11 -13 -25 -35 -31 -49 -6 -15 -25 -42
-41 -60 -16 -19 -39 -54 -52 -79 -31 -61 -39 -77 -66 -127 -12 -24 -27 -75
-33 -114 -14 -85 -5 -110 54 -151 42 -29 80 -31 170 -10 74 17 213 96 290 164
59 52 125 100 242 175 29 19 58 43 63 54 6 11 15 17 20 14 15 -9 10 -113 -6
-126 -8 -6 -14 -26 -14 -43 0 -17 -6 -56 -14 -86 -16 -60 -8 -95 26 -121 20
-15 20 -18 5 -47 -15 -31 -15 -31 20 -58 24 -18 59 -31 112 -40 94 -17 201
-18 201 -3 0 7 10 9 26 5 20 -5 32 -2 46 14 14 15 23 18 37 11 20 -11 101 -3
101 10 0 5 13 9 28 9 38 0 192 39 217 56 11 7 37 16 57 19 21 4 42 13 49 21 6
8 21 14 32 14 11 0 35 11 53 25 18 14 40 25 50 25 29 0 105 43 135 78 30 33
38 82 20 111 -8 12 -16 13 -45 4 -20 -6 -44 -9 -54 -6 -10 2 -26 -5 -36 -16
-11 -12 -29 -21 -41 -21 -12 0 -33 -8 -46 -18 -15 -12 -64 -25 -134 -36 -60
-10 -126 -22 -146 -27 -42 -10 -332 -13 -342 -2 -4 4 -40 15 -79 25 -104 26
-118 38 -118 98 0 42 4 51 28 68 20 15 32 37 45 88 26 95 33 107 78 134 21 14
39 31 39 38 0 19 34 65 107 145 55 60 63 74 63 107 0 61 -26 69 -98 32 -44
-23 -59 -37 -67 -61 -5 -17 -15 -31 -22 -31 -6 0 -23 -11 -37 -25 -14 -13 -43
-32 -65 -41 -28 -11 -41 -22 -41 -35 0 -10 -12 -25 -27 -33 -16 -8 -40 -26
-55 -40 -15 -14 -32 -26 -39 -26 -6 0 -26 -15 -43 -33 -17 -18 -57 -48 -88
-66 -32 -18 -63 -40 -70 -50 -7 -10 -47 -40 -88 -66 -41 -26 -95 -65 -120 -85
-25 -20 -76 -49 -115 -65 -38 -15 -85 -34 -103 -42 -26 -11 -40 -12 -68 -3
-51 17 -62 49 -35 97 12 21 30 57 41 79 11 23 32 55 48 71 15 17 34 43 42 59
22 44 62 108 75 119 21 19 74 122 80 158 10 50 -7 77 -50 77 -49 0 -116 -45
-237 -161 -15 -15 -69 -61 -120 -103 -93 -76 -101 -82 -129 -101 -9 -5 -47
-31 -86 -57 -38 -26 -94 -58 -124 -73 -30 -14 -68 -34 -84 -43 -52 -29 -146
-70 -235 -102 -85 -31 -183 -41 -204 -20 -18 18 -6 67 33 138 23 39 41 74 41
77 0 3 9 16 21 28 11 12 28 40 38 62 10 22 25 46 34 54 10 7 17 20 17 27 0 8
9 19 20 26 12 7 32 32 46 56 14 23 29 42 33 42 5 0 20 24 35 53 43 88 30 169
-24 152 -11 -4 -60 -47 -109 -96 -49 -49 -94 -89 -99 -89 -29 0 -68 158 -54
217 5 21 15 72 21 113 7 41 16 95 22 120 7 34 6 56 -3 85 -11 35 -17 40 -46
43 -35 4 -63 -13 -128 -75 -22 -21 -69 -65 -105 -98 -68 -63 -131 -134 -189
-211 -19 -25 -71 -90 -115 -143 -44 -53 -93 -115 -109 -138 -42 -62 -53 -69
-75 -49 -17 16 -22 15 -87 -19 -38 -19 -75 -35 -83 -35 -7 0 -51 -18 -97 -40
-47 -22 -89 -40 -94 -40 -6 0 -18 -4 -28 -9 -9 -6 -80 -31 -157 -56 -77 -26
-144 -50 -150 -54 -5 -4 -29 -9 -52 -10 -23 -1 -68 -10 -100 -21 -208 -67
-478 -98 -563 -64 l-40 16 0 58 c0 33 5 62 10 65 6 3 10 14 10 23 1 9 9 31 18
49 55 103 82 157 82 166 0 6 20 37 45 68 25 32 45 63 45 71 0 14 50 80 109
143 28 30 40 53 45 86 8 53 -7 102 -29 97 -8 -2 -73 -59 -144 -128 -142 -138
-230 -218 -259 -234 -10 -6 -34 -23 -54 -39 -52 -40 -308 -164 -386 -186 -37
-11 -82 -27 -99 -36 -18 -9 -37 -14 -43 -10 -13 8 -13 45 0 45 6 0 10 6 10 13
0 7 15 29 33 48 18 19 53 67 77 105 27 45 60 82 91 104 27 19 49 40 49 47 0 6
16 32 35 57 19 26 35 51 35 56 0 6 5 10 10 10 6 0 10 11 10 24 0 35 -46 86
-77 86 -31 0 -254 -134 -328 -197 -5 -5 -29 -20 -52 -33 -24 -13 -43 -27 -43
-32 0 -4 -5 -8 -10 -8 -6 0 -46 -25 -90 -55 -44 -30 -83 -55 -86 -55 -8 0
-118 -80 -165 -119 -20 -17 -43 -31 -51 -31 -7 0 -29 -13 -48 -30 -19 -16 -40
-29 -46 -30 -6 0 -18 -8 -27 -18 -24 -27 -164 -98 -174 -89 -4 5 1 23 11 40
11 18 26 46 34 62 9 17 30 49 48 73 18 24 36 56 39 72 4 17 11 32 16 35 5 4 9
15 9 26 0 11 13 34 29 50 29 28 71 133 71 175 0 12 10 33 21 48 17 22 20 35
15 69 -9 55 -31 87 -60 87 -55 0 -179 -86 -311 -215 -28 -27 -80 -70 -114 -95
-35 -25 -80 -58 -100 -75 -20 -16 -43 -34 -53 -40 -9 -5 -47 -31 -85 -56 -37
-25 -108 -67 -158 -93 -49 -27 -99 -55 -110 -62 -11 -8 -27 -14 -37 -14 -10 0
-27 -9 -39 -21 -12 -12 -42 -24 -75 -29 -30 -5 -58 -11 -63 -14 -10 -6 -21 17
-21 42 1 34 122 255 162 295 10 10 18 28 18 40 0 26 23 56 68 86 17 12 32 28
32 34 0 7 29 46 65 87 35 41 64 81 65 89 0 8 20 41 45 75 113 152 120 165 118
234 -3 76 -6 82 -44 82 -83 0 -164 -60 -433 -325 -194 -190 -348 -335 -357
-335 -4 0 -44 -35 -88 -77 -44 -43 -130 -118 -191 -168 -61 -49 -128 -105
-148 -122 -20 -18 -40 -33 -44 -33 -4 0 -30 -20 -58 -45 -28 -24 -65 -52 -83
-61 -17 -10 -36 -23 -42 -29 -15 -19 -142 -105 -155 -105 -9 0 1 23 40 93 24
42 32 56 65 121 19 39 35 74 35 78 0 5 25 40 55 77 30 38 55 71 55 74 0 5 70
111 130 195 16 23 30 47 30 53 0 6 11 25 25 43 14 18 25 38 25 44 0 6 8 17 18
24 26 20 85 97 117 153 16 28 42 66 59 86 17 20 49 63 71 94 22 32 51 69 65
84 14 14 31 40 38 56 7 17 25 38 40 49 15 10 39 37 54 61 15 23 39 55 52 71
93 109 191 232 241 304 32 47 69 99 82 115 54 68 83 108 83 118 0 5 12 22 28
36 15 15 33 38 40 51 7 14 31 45 54 70 39 44 108 143 108 155 0 4 22 28 49 53
59 57 101 113 101 135 0 9 17 34 38 55 46 49 99 114 132 161 13 20 46 62 72
93 26 31 48 61 48 67 0 6 9 20 19 30 44 44 63 105 39 129 -30 30 -73 2 -133
-89 -16 -24 -47 -64 -70 -89 -22 -25 -58 -72 -80 -103 -22 -32 -62 -85 -90
-117 -27 -31 -86 -108 -130 -170 -44 -62 -101 -139 -127 -172 -27 -33 -48 -65
-48 -72 0 -8 -7 -19 -15 -26 -14 -12 -221 -280 -280 -363 -265 -373 -757 -902
-1050 -1127 -18 -14 -75 -60 -127 -102 -53 -43 -99 -78 -103 -78 -12 0 -115
-72 -115 -81 0 -4 -12 -10 -26 -13 -15 -4 -44 -20 -65 -36 -22 -17 -56 -43
-77 -59 -20 -15 -55 -38 -77 -50 -42 -23 -77 -47 -143 -99 -22 -18 -46 -32
-54 -32 -8 0 -70 -30 -139 -66 -168 -90 -286 -144 -315 -144 -22 0 -24 4 -24
44 0 28 7 52 19 68 11 13 23 38 27 54 4 16 20 48 36 72 15 24 38 62 50 85 11
23 25 45 30 48 5 3 17 18 26 31 32 49 125 153 152 170 31 21 90 100 90 122 0
8 16 28 35 43 20 15 48 46 63 68 14 22 45 61 67 86 37 42 77 106 128 206 21
41 25 107 7 128 -24 29 -59 17 -114 -38 -29 -29 -65 -72 -80 -96 -15 -23 -55
-75 -90 -114 -34 -40 -101 -131 -148 -202 -87 -132 -170 -223 -237 -258 -20
-10 -47 -30 -62 -43 -14 -13 -28 -24 -32 -24 -3 0 -27 -14 -53 -32 -82 -55
-203 -117 -283 -144 -62 -21 -102 -12 -143 34 -34 37 -34 39 -36 140 l-2 101
53 63 c29 35 59 75 66 90 8 15 21 36 30 45 27 29 186 244 217 293 15 25 42 61
59 81 40 48 123 165 187 264 29 44 58 86 65 94 8 7 23 32 35 54 11 23 42 68
68 100 26 32 52 76 59 97 7 25 26 50 51 70 21 17 50 54 64 83 14 29 46 77 71
107 25 30 45 58 45 62 0 11 96 149 135 193 19 22 35 45 35 50 0 17 70 67 86
61 8 -3 17 -14 21 -23 13 -35 56 -83 74 -83 23 0 24 12 3 51 -19 38 -12 59 19
59 38 0 50 20 27 45 -11 11 -28 46 -39 76 l-19 56 29 62 c16 34 29 64 29 66 0
2 23 38 50 80 28 41 55 86 59 98 5 12 30 58 57 102 89 150 94 165 72 236 -12
41 -37 52 -62 27 -11 -12 -46 -80 -46 -91 0 -27 -246 -443 -267 -451 -16 -7
-81 131 -108 232 -17 61 -25 123 -30 240 -10 229 -19 276 -63 334 -34 45 -39
48 -82 48 -25 -1 -63 -10 -85 -21z m63 -197 c8 -10 12 -52 12 -119 0 -111 16
-293 29 -333 5 -14 14 -45 21 -70 6 -25 16 -53 22 -64 5 -10 16 -36 23 -57 8
-21 33 -64 56 -95 45 -61 45 -54 -1 -134 -11 -19 -36 -57 -55 -85 -19 -27 -51
-75 -72 -105 -20 -30 -42 -61 -49 -68 -8 -7 -21 -26 -31 -42 -9 -17 -20 -30
-24 -30 -4 0 -23 -21 -42 -48 -40 -54 -286 -283 -422 -393 -49 -40 -117 -96
-150 -124 -33 -28 -89 -69 -125 -90 -36 -21 -69 -43 -75 -50 -22 -25 -152 -87
-195 -92 -68 -8 -88 13 -105 110 -12 72 -12 81 4 110 10 18 26 61 36 97 45
169 277 636 443 894 18 28 32 54 32 60 0 5 10 23 23 40 13 17 32 47 44 66 86
146 136 219 225 324 18 21 40 51 49 65 9 14 50 62 92 106 42 44 77 85 77 92 0
6 8 14 19 18 10 3 26 14 34 23 20 22 86 18 105 -6z m6245 -2395 c3 -8 1 -20
-4 -28 -17 -27 -10 -164 11 -214 11 -26 20 -53 20 -62 0 -8 9 -28 20 -43 11
-16 18 -35 15 -43 -9 -22 -182 -159 -244 -192 -31 -16 -80 -47 -109 -67 -29
-21 -55 -38 -58 -38 -3 0 -46 -24 -97 -54 -157 -92 -287 -145 -287 -117 0 13
81 148 132 219 23 34 61 87 83 118 22 32 51 68 65 82 14 13 45 54 70 90 25 36
62 78 82 92 25 17 50 49 74 97 26 50 45 73 61 78 12 3 45 25 73 50 51 45 84
56 93 32z m-7475 -320 c13 -6 31 -24 40 -38 15 -26 14 -29 -29 -85 -24 -33
-52 -68 -62 -79 -9 -11 -40 -47 -67 -80 -60 -72 -58 -70 -191 -212 -58 -63
-130 -132 -160 -154 -30 -23 -71 -56 -93 -75 -21 -19 -46 -34 -55 -32 -19 4
-37 96 -21 112 5 5 10 19 10 29 0 21 51 117 62 117 9 0 48 74 48 92 0 7 20 40
45 73 25 33 45 64 45 70 0 16 197 215 213 215 8 0 22 9 32 20 10 11 28 20 39
20 12 0 28 5 36 10 21 14 80 12 108 -3z"/>
<path d="M11043 4501 c-12 -10 -33 -47 -48 -82 -14 -35 -36 -79 -49 -99 -27
-39 -135 -211 -153 -242 -6 -12 -16 -23 -21 -27 -9 -6 -51 -63 -99 -136 -14
-22 -48 -68 -75 -102 -26 -34 -57 -80 -68 -101 -11 -21 -34 -51 -50 -67 -17
-16 -30 -34 -30 -41 0 -6 -7 -18 -16 -25 -9 -7 -54 -63 -100 -124 -46 -60
-102 -134 -126 -164 -24 -30 -52 -69 -63 -86 -57 -93 -124 -167 -182 -205 -62
-40 -63 -41 -63 -86 0 -36 -9 -61 -37 -108 -20 -33 -42 -65 -49 -71 -14 -12
-104 -143 -104 -151 0 -3 -18 -28 -40 -54 -22 -26 -40 -52 -40 -57 0 -5 -16
-26 -35 -47 -19 -21 -55 -69 -80 -107 -25 -38 -50 -69 -55 -69 -47 0 -85 60
-96 151 -5 45 -2 63 15 99 11 24 21 49 21 56 0 21 48 109 70 129 11 10 20 24
20 31 0 7 18 28 41 46 143 116 169 141 169 163 0 65 -153 11 -197 -70 -6 -12
-30 -34 -53 -49 -23 -15 -48 -43 -58 -64 -9 -20 -28 -53 -43 -72 -52 -69 -98
-182 -105 -256 -7 -82 9 -224 31 -265 50 -96 48 -85 27 -131 -11 -24 -37 -63
-59 -88 -22 -25 -80 -106 -129 -179 -49 -74 -101 -149 -116 -165 -16 -17 -28
-35 -28 -41 0 -5 -14 -28 -30 -49 -17 -22 -30 -44 -30 -49 0 -5 -20 -32 -45
-59 -44 -49 -60 -73 -89 -135 -9 -17 -25 -38 -36 -46 -19 -13 -70 -82 -70 -94
0 -3 -17 -26 -38 -52 -46 -56 -92 -144 -92 -176 0 -13 -4 -27 -10 -30 -5 -3
-10 -21 -10 -39 0 -20 -8 -40 -20 -51 -19 -17 -19 -19 -4 -37 10 -10 22 -18
28 -18 14 0 118 77 129 95 4 7 42 39 85 71 70 53 155 121 255 205 21 18 47 49
57 69 13 26 33 44 64 59 25 11 49 29 55 38 5 10 39 47 76 83 69 67 109 109
256 267 9 10 37 38 63 62 25 24 46 49 46 54 0 5 17 29 38 52 20 23 55 63 77
89 l39 46 133 0 c100 0 133 -3 133 -12 0 -25 -28 -92 -39 -96 -6 -2 -11 -9
-11 -15 0 -10 -123 -268 -151 -317 -5 -8 -20 -40 -34 -70 -14 -30 -34 -73 -44
-95 -10 -22 -29 -62 -41 -90 -11 -27 -25 -58 -31 -67 -5 -10 -9 -27 -9 -38 0
-11 -4 -28 -10 -38 -5 -9 -21 -52 -35 -96 -29 -93 -33 -177 -8 -201 30 -31 66
-11 159 86 49 51 98 102 110 113 11 12 26 37 34 56 7 19 17 39 22 45 4 5 8 17
8 27 0 19 17 53 36 75 7 7 26 47 44 90 18 43 36 82 41 87 5 6 9 20 9 33 0 23
2 29 33 91 9 19 17 44 17 56 0 13 8 34 19 47 18 24 24 43 42 132 5 26 13 68
19 95 5 26 12 62 16 80 4 22 13 34 28 36 37 8 140 19 186 21 25 1 73 9 108 19
35 9 82 16 105 16 31 1 51 8 75 29 31 26 39 28 91 24 44 -4 59 -2 70 11 7 9
26 16 40 16 31 0 60 33 81 91 20 56 10 69 -53 69 -30 0 -67 -4 -83 -10 -47
-15 -221 -39 -329 -44 -55 -3 -135 -8 -177 -12 -89 -7 -98 2 -51 52 15 16 44
63 65 104 40 78 42 81 96 166 17 28 32 54 32 57 0 3 14 30 31 59 18 29 46 78
62 108 17 30 47 80 67 110 20 30 47 76 59 102 13 26 52 89 87 138 35 50 64 99
64 108 0 9 18 35 40 56 22 22 43 49 46 60 6 20 62 103 129 191 17 23 43 65 58
95 14 30 54 91 87 135 34 44 65 90 70 103 6 12 18 35 28 50 81 118 102 151
102 156 0 4 16 29 35 57 19 28 35 56 35 61 0 6 18 28 39 49 50 48 74 93 74
141 0 42 -17 68 -42 67 -15 0 -40 -30 -169 -194 -26 -34 -52 -67 -59 -75 -7
-8 -26 -31 -42 -51 -32 -38 -101 -138 -101 -146 0 -3 -20 -28 -44 -56 -49 -58
-136 -184 -136 -196 0 -5 -11 -16 -24 -24 -12 -9 -31 -32 -41 -53 -9 -20 -34
-55 -55 -78 -21 -23 -50 -59 -66 -82 -31 -45 -118 -161 -285 -381 -21 -29 -39
-55 -39 -58 0 -3 -19 -25 -42 -48 -50 -49 -93 -101 -115 -139 -24 -39 -55 -53
-82 -36 -12 7 -24 22 -27 34 -6 22 -52 49 -101 59 -18 4 -33 12 -33 19 0 7
-11 18 -24 24 -14 6 -30 20 -36 32 -9 17 -5 26 27 58 48 49 83 90 83 100 0 4
16 30 35 57 20 28 51 73 69 100 19 28 68 89 109 137 42 48 88 114 103 148 16
33 31 60 35 60 11 0 89 106 89 121 0 8 19 32 41 54 23 22 48 54 55 72 8 17 36
59 64 92 27 33 50 64 50 69 0 5 7 15 15 22 8 6 30 45 49 85 19 40 43 76 53 79
21 7 53 59 53 86 0 11 6 23 13 27 17 11 67 101 67 122 0 9 7 27 16 39 18 25
12 72 -9 72 -6 -1 -22 -9 -34 -19z m-253 -1341 c0 -13 -40 -53 -47 -47 -6 7
27 57 38 57 5 0 9 -4 9 -10z m-63 -92 c-3 -7 -5 -2 -5 12 0 14 2 19 5 13 2 -7
2 -19 0 -25z m-17 -28 c0 -6 -5 -16 -11 -23 -25 -29 -159 -254 -159 -268 0 -8
-9 -24 -19 -36 -10 -11 -27 -35 -36 -54 -10 -19 -42 -71 -71 -116 -30 -44 -54
-85 -54 -91 0 -5 -7 -15 -15 -22 -21 -17 -34 -3 -46 49 -12 54 4 92 66 151 25
25 55 64 66 87 10 23 29 50 43 60 13 10 31 33 40 51 19 36 40 65 72 96 12 12
24 31 28 43 4 11 13 24 21 27 8 3 15 10 15 16 0 17 24 39 43 40 9 0 17 -5 17
-10z m-642 -259 c23 -21 42 -46 42 -55 0 -9 11 -34 25 -56 18 -28 25 -54 25
-88 0 -46 -4 -53 -75 -138 -111 -131 -118 -139 -138 -165 -9 -13 -33 -44 -52
-67 -19 -24 -35 -52 -35 -62 0 -27 -58 -33 -164 -19 -89 12 -149 30 -160 48
-9 14 22 68 50 86 14 9 33 33 41 53 8 20 26 50 40 66 13 16 32 45 43 65 10 20
36 54 57 76 31 32 146 195 161 227 11 24 60 67 77 68 11 0 39 -17 63 -39z
m112 -500 c0 -50 -4 -93 -10 -96 -5 -3 -10 -15 -10 -25 0 -11 -8 -23 -17 -29
-20 -10 -172 -11 -178 -1 -2 3 9 21 25 40 15 18 34 45 42 59 23 45 112 141
130 141 16 0 18 -10 18 -89z m-705 -332 c64 -12 135 -43 135 -60 0 -12 -44
-74 -74 -105 -21 -21 -203 -212 -241 -252 -11 -11 -57 -56 -102 -99 -45 -43
-113 -107 -150 -143 -131 -125 -262 -225 -276 -211 -7 7 -3 19 9 37 10 15 24
34 29 43 6 9 22 28 38 43 15 15 27 34 27 43 0 21 25 60 72 112 21 24 38 48 38
55 0 16 84 139 135 197 22 25 54 66 70 91 17 25 33 47 36 50 4 3 22 28 41 55
46 68 79 105 95 105 7 0 20 11 29 25 19 29 13 28 89 14z m617 -189 c-2 -16 -8
-33 -13 -36 -5 -3 -9 -21 -9 -41 0 -32 -26 -136 -50 -198 -5 -11 -23 -58 -41
-105 -40 -105 -146 -297 -205 -373 -28 -34 -58 -37 -45 -4 5 12 19 58 31 102
13 44 31 97 42 118 13 26 17 48 13 67 -8 34 14 80 51 109 30 24 56 70 74 136
7 25 30 67 52 93 21 26 38 51 38 57 0 19 52 115 59 110 4 -2 6 -18 3 -35z"/>
<path d="M6483 4345 c-17 -7 -39 -26 -49 -42 -10 -15 -36 -49 -59 -75 -46 -53
-52 -60 -85 -108 -13 -19 -27 -37 -30 -40 -22 -19 -80 -101 -93 -130 -8 -19
-31 -52 -51 -74 -20 -21 -36 -44 -36 -50 -1 -6 -14 -27 -30 -46 -17 -19 -30
-37 -30 -41 0 -12 -89 -153 -114 -179 -12 -14 -42 -59 -65 -100 -24 -41 -53
-89 -66 -106 -13 -16 -30 -47 -39 -68 -8 -20 -31 -56 -49 -79 -19 -23 -47 -67
-64 -97 -16 -30 -54 -95 -83 -145 -30 -49 -71 -124 -92 -165 -39 -78 -68 -129
-128 -225 -19 -31 -39 -64 -45 -74 -15 -25 -66 -90 -96 -123 -15 -16 -73 -88
-128 -161 -55 -73 -108 -141 -118 -152 -34 -38 -118 -139 -159 -192 -156 -201
-583 -613 -635 -613 -19 0 5 72 49 145 9 17 31 53 47 80 16 28 35 55 41 60 6
6 14 32 18 60 4 30 20 73 41 108 19 32 35 72 35 88 0 17 6 42 14 57 7 16 16
78 19 148 7 121 6 122 -23 180 -35 70 -36 80 -10 119 15 22 20 47 20 93 0 54
-4 67 -25 87 -13 14 -29 25 -35 25 -40 0 -80 -59 -80 -118 0 -15 -4 -32 -8
-37 -5 -6 -19 -44 -32 -85 -13 -41 -35 -93 -49 -115 -141 -229 -197 -306 -302
-416 -85 -87 -377 -292 -499 -349 -128 -60 -219 -90 -269 -90 -45 0 -80 33
-97 90 -20 68 -19 188 1 236 8 20 15 48 15 63 0 33 52 137 88 175 15 16 45 37
67 48 63 31 96 51 147 86 26 17 49 32 53 32 8 0 88 74 134 124 20 22 51 55 69
73 20 22 32 44 32 61 0 16 11 43 25 62 14 19 25 47 25 64 0 16 8 54 17 84 17
52 17 55 -2 90 -25 46 -63 65 -112 56 -31 -5 -58 -27 -153 -123 -64 -64 -136
-148 -162 -186 -26 -39 -56 -79 -67 -89 -12 -11 -21 -27 -21 -36 0 -10 -7 -23
-15 -30 -8 -7 -33 -45 -55 -85 -37 -67 -45 -75 -103 -104 -101 -49 -244 -101
-347 -126 -66 -16 -233 -33 -265 -28 -41 7 -57 30 -32 48 10 7 17 17 17 23 0
6 11 23 23 39 27 32 111 186 122 223 4 13 20 37 36 52 16 16 36 54 46 86 9 31
23 64 30 73 7 8 13 19 13 23 0 3 19 30 41 59 23 28 45 63 51 77 5 14 20 46 33
72 14 26 25 53 25 59 0 6 9 24 21 40 34 48 79 142 79 166 0 12 8 27 18 32 11
6 27 32 37 58 10 26 24 55 31 63 7 9 25 41 39 72 14 31 32 62 40 68 8 7 15 19
15 27 0 20 26 68 66 120 19 24 34 49 34 55 0 5 15 35 33 66 18 31 38 75 46 97
8 22 27 56 42 75 15 19 31 49 35 65 12 51 50 128 83 169 17 21 31 43 31 48 0
4 11 14 25 20 17 7 25 19 25 36 0 14 9 40 21 58 17 27 19 42 13 81 -15 104
-50 140 -99 101 -17 -13 -25 -29 -25 -51 0 -18 -9 -43 -20 -57 -11 -14 -20
-41 -20 -62 0 -20 -4 -40 -10 -43 -5 -3 -19 -37 -30 -75 -11 -38 -25 -72 -30
-75 -5 -3 -24 -38 -43 -78 -43 -92 -65 -136 -82 -167 -22 -39 -65 -138 -65
-148 0 -5 -7 -15 -15 -22 -9 -7 -29 -43 -46 -79 -17 -36 -36 -73 -44 -81 -7
-8 -16 -26 -20 -39 -4 -13 -20 -45 -35 -71 -15 -26 -31 -58 -35 -71 -4 -13
-18 -37 -30 -54 -12 -16 -28 -47 -34 -67 -7 -21 -17 -40 -22 -43 -5 -4 -27
-43 -49 -88 -22 -45 -58 -116 -81 -157 -23 -41 -57 -106 -76 -145 -20 -38 -39
-72 -43 -75 -4 -3 -17 -27 -28 -53 -12 -27 -44 -82 -72 -124 -27 -41 -53 -87
-56 -101 -4 -15 -22 -47 -39 -72 -18 -25 -49 -77 -68 -115 -44 -88 -67 -111
-96 -96 -11 6 -27 11 -35 11 -27 0 -75 51 -82 85 -3 19 -1 43 7 56 15 28 23
336 9 344 -5 3 -6 35 -3 70 4 41 2 69 -5 78 -6 7 -15 31 -21 52 -27 111 -47
135 -122 148 -42 8 -49 4 -84 -53 -16 -25 -42 -58 -58 -73 -27 -25 -29 -30
-17 -51 7 -13 9 -30 5 -36 -13 -22 -34 -223 -28 -270 3 -25 12 -54 19 -65 7
-11 12 -44 11 -75 -2 -50 2 -60 36 -103 20 -27 37 -57 37 -67 0 -11 8 -27 19
-37 25 -24 62 -108 55 -126 -3 -9 -16 -18 -30 -21 -30 -8 -31 -22 -3 -31 19
-6 20 -12 14 -63 -4 -32 -10 -64 -15 -72 -4 -8 -10 -48 -14 -88 -3 -41 -15
-92 -25 -115 -10 -23 -22 -61 -26 -84 -4 -24 -11 -45 -16 -49 -5 -3 -9 -23 -9
-45 0 -27 -8 -51 -24 -72 -13 -18 -35 -54 -50 -82 -14 -27 -39 -72 -56 -100
-50 -83 -77 -138 -85 -173 -4 -18 -13 -36 -20 -39 -8 -2 -29 -35 -48 -71 -19
-37 -49 -94 -66 -126 -17 -33 -31 -65 -31 -72 0 -7 -11 -34 -25 -60 -14 -26
-25 -62 -25 -81 0 -18 -6 -42 -12 -53 -11 -17 -10 -25 2 -47 8 -14 20 -28 27
-30 23 -8 101 77 132 143 17 36 43 84 59 107 73 104 102 156 102 179 0 14 9
33 20 43 11 10 20 25 20 34 0 28 35 117 61 157 14 22 29 57 33 79 4 21 20 62
35 90 16 27 31 67 35 88 5 25 22 53 52 84 24 26 44 54 44 63 0 9 8 24 18 34
11 9 25 35 31 59 7 23 19 49 26 57 7 8 21 33 30 55 10 22 28 54 40 70 12 17
25 37 28 45 4 8 15 28 25 44 l17 28 161 3 c124 2 168 6 192 19 17 9 47 16 66
16 35 0 192 45 212 61 5 4 30 10 55 11 35 2 43 0 40 -12 -2 -8 -12 -44 -22
-80 -11 -35 -19 -85 -19 -110 0 -25 -5 -51 -11 -57 -7 -7 -9 -46 -5 -109 9
-194 24 -230 112 -270 43 -19 60 -21 105 -15 30 4 64 13 76 19 12 7 32 12 44
12 12 0 48 14 81 30 32 17 63 30 69 30 6 0 25 11 42 23 18 13 61 41 97 61 70
40 141 87 205 135 59 44 295 276 295 290 0 7 21 33 46 58 25 26 52 60 61 77 9
17 26 41 39 53 14 12 24 34 24 48 0 15 7 41 16 58 9 18 20 39 24 47 12 25 44
17 59 -15 34 -69 24 -189 -22 -280 -20 -39 -57 -123 -57 -130 0 -3 -12 -24
-27 -48 -39 -61 -73 -126 -73 -140 0 -7 -18 -38 -39 -70 -36 -54 -61 -114
-107 -259 -17 -54 -17 -58 0 -77 9 -10 29 -21 44 -24 34 -7 106 24 147 62 34
31 111 84 137 94 10 3 30 24 46 46 16 22 43 52 60 66 18 15 32 32 32 39 0 6
15 20 33 30 39 22 254 240 262 267 4 10 9 19 13 19 10 0 62 51 92 90 14 17 44
52 67 78 24 26 43 52 43 58 0 6 9 19 20 29 11 10 20 24 20 31 0 16 17 27 30
19 6 -4 0 -25 -14 -53 -39 -76 -106 -243 -106 -262 0 -10 -13 -48 -29 -86 -15
-38 -40 -105 -54 -149 -73 -231 -72 -289 9 -325 26 -11 52 -16 58 -12 108 66
389 347 431 431 14 29 38 64 51 78 13 13 24 28 24 33 0 5 13 24 28 42 48 57
130 191 142 233 6 22 18 54 28 71 27 50 71 128 81 144 18 29 60 125 67 153 3
15 11 30 16 33 11 7 37 -25 38 -46 0 -21 65 -116 103 -151 18 -16 49 -37 70
-47 44 -20 45 -31 17 -116 -41 -122 -49 -153 -69 -251 -39 -187 -22 -357 41
-422 45 -47 94 -60 167 -45 31 7 67 12 80 12 13 0 36 9 51 20 16 11 42 23 58
26 16 3 52 24 81 45 28 21 58 39 67 39 8 0 53 37 98 83 46 45 116 114 157 152
96 91 129 131 129 155 0 11 14 30 31 42 17 13 40 40 51 61 11 22 36 58 57 80
51 58 111 153 111 176 0 18 41 76 65 93 24 17 27 -15 10 -104 -18 -99 -17
-170 5 -343 15 -109 12 -120 -53 -230 -105 -178 -174 -349 -184 -457 -6 -65 2
-83 47 -92 22 -4 45 2 82 22 84 44 109 62 173 127 33 33 67 65 76 70 30 18
232 206 289 268 30 34 82 91 115 127 33 36 80 94 105 129 25 35 66 85 93 113
26 27 47 55 47 62 0 7 10 21 21 32 12 10 48 55 81 99 33 44 66 84 74 88 17 9
55 65 99 142 26 47 51 78 148 184 12 13 27 34 32 46 10 24 40 63 113 149 24
28 46 63 49 78 3 17 16 32 33 39 14 7 35 27 46 45 24 42 161 210 220 272 25
26 52 59 59 73 8 14 32 38 54 52 23 15 41 33 41 41 0 21 27 40 33 24 6 -18
-20 -66 -134 -250 -54 -87 -99 -162 -99 -166 0 -4 -32 -50 -71 -102 -39 -52
-80 -113 -91 -135 -11 -22 -32 -54 -47 -72 -43 -52 -111 -150 -111 -160 0 -6
-16 -31 -35 -56 -20 -26 -46 -64 -58 -86 -12 -21 -43 -67 -69 -102 -67 -91
-85 -117 -123 -179 -18 -30 -43 -67 -54 -82 -12 -14 -21 -29 -21 -33 0 -11
-86 -139 -103 -154 -9 -7 -17 -21 -17 -31 0 -10 -15 -36 -32 -58 -41 -50 -57
-72 -88 -126 -14 -24 -39 -61 -57 -82 -61 -74 -133 -179 -133 -194 0 -8 -18
-37 -40 -65 -22 -27 -40 -61 -40 -73 0 -13 -9 -35 -20 -49 -11 -14 -20 -37
-20 -52 -1 -14 -7 -37 -15 -51 -20 -35 -18 -68 4 -80 28 -15 36 -13 70 16 22
18 31 35 31 55 0 18 16 55 40 91 22 34 40 68 40 75 0 7 15 30 34 50 18 21 43
58 56 82 27 53 28 56 111 145 36 39 76 85 88 101 12 17 45 54 73 83 40 42 56
52 82 52 39 0 50 8 35 26 -8 9 -3 25 16 58 15 25 30 46 35 46 4 0 48 39 98 88
50 48 113 107 139 132 27 25 80 79 118 121 39 42 81 82 95 89 14 7 48 32 75
55 28 23 67 52 87 64 20 12 39 30 43 40 3 9 23 27 45 40 38 21 90 79 103 113
5 13 -2 22 -24 34 -40 20 -77 7 -139 -51 -25 -23 -63 -54 -85 -70 -22 -15 -58
-48 -81 -72 -22 -23 -46 -43 -53 -43 -7 0 -49 -32 -94 -72 -45 -39 -89 -77
-97 -84 -8 -7 -60 -56 -115 -109 -55 -53 -101 -92 -103 -86 -4 11 34 87 47 96
10 6 71 92 71 100 0 3 17 30 38 61 70 107 111 174 117 194 4 11 29 46 56 77
27 31 49 60 49 65 0 5 24 34 54 64 33 34 56 67 60 86 3 18 17 44 30 58 13 14
39 54 57 89 19 35 44 75 56 90 89 103 103 124 103 150 0 18 12 39 38 64 31 31
45 37 79 37 50 0 59 10 35 41 -39 51 -12 169 39 169 19 0 27 19 28 70 0 13 6
29 14 35 7 5 18 29 24 52 9 35 8 49 -6 75 -35 70 -89 44 -253 -124 -71 -72
-128 -134 -128 -138 0 -4 -23 -32 -51 -61 -29 -30 -70 -79 -92 -109 -22 -30
-44 -57 -47 -60 -10 -7 -212 -259 -238 -297 -12 -17 -36 -47 -54 -67 -17 -19
-47 -58 -67 -85 -36 -50 -200 -257 -298 -376 -29 -35 -53 -68 -53 -73 0 -5
-16 -26 -36 -47 -20 -21 -55 -64 -78 -94 -22 -31 -46 -60 -52 -66 -6 -5 -33
-39 -59 -75 -27 -36 -67 -86 -89 -112 -74 -85 -299 -311 -386 -387 -47 -41
-92 -82 -100 -91 -25 -27 -126 -100 -138 -100 -17 0 -16 4 18 63 17 30 30 63
30 74 0 11 11 32 25 47 14 15 25 32 25 37 0 6 14 30 30 54 17 24 30 51 30 59
0 9 14 42 30 73 28 53 30 62 30 170 0 67 -5 127 -12 146 -25 62 -7 333 25 392
9 17 14 37 12 46 -3 9 1 22 9 28 8 7 18 37 22 67 4 32 16 70 31 91 31 45 28
84 -8 97 -32 11 -72 -14 -90 -56 -6 -16 -15 -28 -19 -28 -3 0 -22 -21 -41 -47
-36 -50 -41 -59 -74 -111 -11 -18 -47 -74 -80 -124 -33 -50 -68 -105 -79 -122
-10 -17 -40 -61 -67 -98 -27 -37 -49 -71 -49 -76 0 -4 -20 -30 -45 -59 -25
-28 -45 -54 -45 -57 0 -14 -289 -291 -345 -330 -72 -52 -146 -88 -238 -116
-74 -23 -114 -20 -157 10 -34 25 -64 109 -55 158 3 20 9 68 12 107 3 43 12 79
23 95 19 27 60 117 60 131 0 21 47 78 75 91 31 16 92 34 160 47 22 5 58 16 80
26 49 21 175 147 175 175 0 12 6 31 14 43 12 20 28 114 28 177 1 14 -6 42 -15
63 -16 37 -16 37 -75 37 -46 0 -71 -6 -110 -28 -69 -37 -186 -145 -212 -195
-20 -37 -39 -62 -97 -124 -12 -12 -32 -23 -44 -23 -31 0 -139 72 -139 93 0 10
-10 37 -22 60 -34 66 -35 168 -3 253 22 58 25 80 21 137 -6 77 -10 87 -37 87
-22 0 -59 -54 -59 -87 0 -12 -4 -24 -9 -27 -5 -3 -14 -26 -20 -50 -6 -24 -31
-88 -56 -141 -25 -54 -51 -119 -59 -146 -9 -27 -31 -79 -51 -115 -19 -36 -35
-72 -35 -79 0 -7 -17 -37 -37 -66 -20 -30 -55 -96 -78 -147 -23 -51 -49 -100
-57 -110 -9 -9 -35 -48 -58 -87 -94 -155 -267 -356 -389 -453 -67 -53 -92 -53
-106 2 -8 34 -5 45 23 100 18 34 32 70 32 79 0 10 27 70 60 134 33 64 63 133
66 152 4 20 22 64 41 98 18 34 33 71 33 82 0 11 11 33 25 49 14 17 25 39 25
49 0 11 9 28 20 38 11 10 20 23 20 30 0 6 19 40 43 76 24 35 51 85 61 110 9
25 28 53 42 64 13 10 24 23 24 30 0 7 12 30 28 51 15 21 33 51 39 65 6 14 32
51 57 82 25 31 46 61 46 66 0 6 10 20 23 33 12 13 38 46 57 73 37 55 37 55 80
104 17 19 39 53 50 75 11 23 40 64 65 91 24 28 53 69 64 91 11 23 36 58 55 79
20 21 36 45 36 54 0 9 14 28 30 43 21 18 30 35 30 57 0 22 7 35 26 47 14 10
35 35 46 58 12 23 42 66 68 96 26 30 64 86 85 125 20 38 48 83 62 99 13 16 33
47 45 70 11 22 34 56 50 75 16 18 39 54 50 80 46 100 82 167 99 178 24 18 53
97 45 127 -4 15 -17 28 -37 35 -39 13 -37 13 -76 -4z m-2933 -1926 c0 -22
-116 -169 -135 -169 -5 -1 -26 -14 -45 -30 -19 -17 -38 -30 -43 -30 -4 0 -23
-11 -41 -25 -37 -28 -46 -31 -46 -11 0 7 27 37 61 66 36 31 69 71 82 99 15 31
38 56 71 79 48 32 96 42 96 21z m-1576 -16 c13 -46 17 -101 7 -107 -5 -4 -7
-21 -4 -39 10 -66 -63 -74 -88 -10 -7 16 -18 42 -27 59 -18 37 -11 53 38 87
42 30 67 33 74 10z m4482 -67 c19 -14 19 -15 -2 -43 -31 -41 -107 -85 -159
-90 -53 -6 -59 7 -21 47 14 14 41 42 61 63 40 41 85 49 121 23z m-4485 -173
c5 -15 8 -45 7 -67 -3 -32 -5 -37 -11 -21 -5 11 -17 37 -28 58 -11 21 -17 42
-14 47 12 19 36 10 46 -17z m146 -459 c3 -8 1 -20 -6 -27 -6 -6 -11 -18 -11
-27 0 -9 -12 -27 -26 -41 -24 -22 -26 -23 -38 -6 -16 21 -5 95 15 108 22 14
59 10 66 -7z"/>
<path d="M2137 4275 c-15 -14 -27 -35 -27 -45 0 -11 -13 -48 -30 -82 -16 -35
-36 -89 -44 -120 -8 -32 -19 -65 -24 -75 -6 -10 -6 -24 0 -38 7 -15 4 -33 -11
-69 -12 -26 -21 -57 -21 -68 0 -11 -8 -32 -18 -46 -9 -15 -28 -61 -41 -102
-37 -118 -53 -164 -62 -175 -5 -5 -9 -16 -9 -25 0 -9 -13 -41 -30 -71 -16 -30
-30 -59 -30 -66 0 -6 -20 -54 -45 -107 -25 -53 -45 -99 -45 -102 0 -3 -13 -33
-29 -67 -94 -197 -111 -237 -126 -281 -8 -27 -25 -60 -35 -74 -11 -13 -20 -34
-21 -46 0 -11 -9 -34 -19 -51 -11 -16 -43 -77 -73 -135 -137 -266 -184 -356
-195 -375 -6 -11 -26 -51 -45 -90 -33 -69 -83 -161 -119 -220 -10 -16 -18 -37
-18 -46 0 -9 -9 -28 -20 -42 -11 -14 -20 -31 -20 -38 0 -6 -11 -26 -24 -43
-13 -17 -27 -42 -31 -56 -4 -14 -15 -36 -25 -50 -34 -49 -90 -168 -90 -192 0
-14 -9 -33 -20 -43 -11 -10 -20 -27 -20 -38 0 -10 -8 -31 -18 -45 -11 -15 -27
-43 -37 -62 -10 -19 -37 -71 -61 -115 -23 -44 -73 -141 -112 -217 -38 -75 -78
-149 -89 -165 -11 -15 -27 -46 -36 -68 -9 -22 -36 -86 -61 -143 -42 -96 -45
-108 -39 -162 5 -48 10 -60 29 -71 22 -11 27 -10 53 15 16 15 37 49 46 74 10
26 30 61 45 77 16 17 38 51 50 78 21 45 21 49 6 81 -21 44 -21 46 9 86 13 18
32 56 41 84 9 28 31 71 49 96 18 25 40 69 49 98 10 29 21 52 26 52 11 0 100
182 100 205 0 18 80 183 122 251 13 21 36 64 51 94 113 235 190 386 201 400 7
8 32 52 54 97 22 46 50 95 61 109 12 15 21 34 21 43 0 22 34 89 60 116 22 23
70 134 70 162 0 23 37 84 60 100 10 7 23 35 30 63 7 27 16 53 21 56 5 3 9 14
9 26 0 11 17 50 37 86 59 107 83 156 83 170 0 7 11 35 25 62 14 27 25 59 25
71 0 12 16 45 35 74 19 29 44 78 55 108 12 31 26 59 31 62 5 4 9 21 9 40 0 19
5 37 11 40 19 12 61 113 131 315 16 47 33 89 38 94 6 6 10 19 10 30 0 24 16
75 42 135 13 29 18 55 14 76 -5 23 -1 39 14 58 11 14 20 35 20 46 0 12 7 32
15 45 9 13 23 52 32 86 15 60 15 64 -3 77 -25 18 -35 17 -67 -12z"/>
<path d="M10860 1431 c-8 -5 -39 -14 -68 -21 -41 -9 -56 -18 -67 -41 -20 -37
-20 -36 17 -71 30 -28 31 -31 19 -64 -21 -57 -6 -108 48 -165 50 -53 95 -66
108 -31 4 9 18 31 32 49 19 25 29 30 42 22 27 -14 54 -11 71 9 27 29 58 92 58
115 0 30 -42 107 -58 107 -7 0 -24 12 -37 28 l-23 27 -25 -24 c-28 -26 -52
-20 -43 12 11 44 -31 72 -74 48z"/>
</g>
</svg>
