<?xml version="1.0" standalone="no"?>
<!DOCTYPE svg PUBLIC "-//W3C//DTD SVG 20010904//EN"
 "http://www.w3.org/TR/2001/REC-SVG-20010904/DTD/svg10.dtd">
<svg version="1.0" xmlns="http://www.w3.org/2000/svg"
 width="1930.000000pt" height="426.000000pt" viewBox="0 0 1930.000000 426.000000"
 preserveAspectRatio="xMidYMid meet">
<metadata>
Created by potrace 1.16, written by Peter Selinger 2001-2019
</metadata>
<g transform="translate(0.000000,426.000000) scale(0.100000,-0.100000)"
fill="#ffffff" stroke="none">
<path d="M10787 4017 c7 -12 -17 -37 -36 -37 -9 0 -35 -18 -56 -41 -30 -30
-46 -39 -64 -36 -21 4 -22 2 -17 -25 4 -19 1 -30 -8 -34 -8 -3 -12 -13 -9 -23
8 -33 -76 -94 -172 -126 -94 -30 -129 -30 -210 5 -26 11 -53 20 -60 20 -7 0
-23 -20 -35 -44 -11 -24 -27 -47 -34 -49 -7 -3 -21 -37 -31 -76 -14 -59 -15
-77 -5 -101 6 -16 9 -33 6 -39 -4 -5 5 -26 19 -47 14 -20 25 -46 25 -58 0 -31
43 -114 68 -132 29 -20 28 -38 -4 -63 -16 -12 -30 -37 -35 -62 -5 -23 -19 -53
-30 -68 -62 -82 -89 -123 -88 -134 1 -7 -3 -25 -9 -40 -7 -16 -12 -34 -12 -41
0 -7 -13 -30 -30 -51 -16 -21 -30 -42 -30 -48 0 -6 -10 -21 -21 -33 -26 -27
-133 -195 -154 -241 -9 -18 -20 -33 -25 -33 -5 0 -20 -21 -31 -46 -12 -25 -35
-55 -50 -67 -18 -12 -29 -30 -29 -44 0 -14 -21 -46 -57 -84 -32 -33 -60 -72
-63 -87 -3 -16 -16 -32 -33 -40 -15 -7 -32 -23 -39 -35 -6 -12 -32 -47 -58
-77 -26 -30 -50 -63 -53 -72 -3 -10 -28 -33 -56 -53 -29 -21 -54 -48 -60 -66
-7 -21 -22 -35 -51 -47 -22 -9 -43 -26 -46 -37 -9 -30 -35 -55 -56 -55 -13 0
-20 -10 -25 -31 -4 -21 -21 -42 -57 -68 -28 -21 -62 -50 -75 -65 -14 -14 -31
-26 -39 -26 -8 0 -27 -11 -44 -25 -16 -14 -33 -25 -38 -25 -11 0 -80 89 -80
103 0 5 14 32 30 59 34 54 37 75 16 104 -19 25 -47 9 -58 -34 -5 -17 -27 -63
-49 -103 -40 -71 -41 -75 -35 -140 7 -84 16 -106 54 -146 28 -31 32 -32 82
-26 45 5 60 13 95 47 23 23 63 57 89 76 39 30 78 67 169 162 9 10 29 18 45 18
22 0 33 11 65 61 20 33 37 66 37 74 0 7 15 25 33 39 60 48 157 151 157 168 0
9 13 26 29 37 16 12 32 35 36 51 4 16 26 51 49 77 24 27 48 58 55 71 7 13 24
27 38 33 21 8 24 14 20 37 -6 32 8 62 28 62 9 0 24 10 35 23 31 35 80 134 80
161 0 26 13 40 50 51 30 9 40 22 40 53 0 15 7 26 20 29 14 4 20 14 20 36 0 22
12 43 45 78 25 26 45 58 45 69 0 11 18 40 40 62 24 25 40 52 40 66 0 13 14 49
31 80 38 69 182 212 214 212 16 0 34 -18 64 -60 23 -33 51 -65 61 -70 10 -6
27 -24 37 -41 10 -17 36 -38 61 -49 26 -12 46 -29 52 -44 5 -15 14 -26 20 -26
6 0 8 -5 5 -10 -3 -6 2 -13 12 -16 10 -3 25 -8 33 -12 8 -3 19 -4 23 -3 5 1 6
-3 2 -9 -3 -5 5 -25 19 -43 32 -42 35 -97 6 -115 -11 -7 -20 -22 -20 -35 0
-17 -2 -19 -9 -7 -6 8 -7 18 -5 22 3 4 -2 5 -10 2 -17 -7 -42 28 -51 71 -17
85 -29 105 -87 155 -33 27 -66 50 -74 50 -19 0 -104 -87 -104 -106 0 -7 -9
-29 -20 -49 -11 -20 -20 -47 -20 -61 0 -18 -7 -28 -21 -31 -12 -4 -18 -11 -15
-20 4 -8 -3 -27 -14 -43 -11 -15 -20 -37 -20 -47 0 -10 -4 -23 -8 -28 -11 -13
-28 -76 -42 -155 -7 -36 -18 -78 -25 -95 -35 -80 -35 -334 1 -396 14 -25 19
-52 19 -101 -1 -63 -4 -72 -43 -127 -23 -33 -42 -68 -42 -78 0 -10 -7 -31 -16
-48 -18 -34 -22 -48 -35 -124 -15 -83 -5 -92 72 -71 26 7 40 19 52 44 16 34
46 70 137 165 25 25 53 61 62 79 10 19 25 32 36 32 11 0 25 7 32 15 10 12 8
18 -10 33 -29 23 -21 68 14 82 13 5 39 25 58 44 19 20 40 36 45 36 6 0 28 12
49 26 21 15 52 31 69 37 16 5 46 22 65 36 19 14 60 42 90 62 30 19 82 58 115
86 33 27 74 53 90 57 17 4 39 16 50 26 11 10 36 27 56 38 20 11 46 26 57 33
17 11 24 11 33 2 10 -10 2 -22 -34 -56 -26 -24 -47 -48 -47 -55 0 -6 -13 -30
-30 -54 -75 -108 -86 -125 -99 -153 -7 -16 -17 -37 -22 -45 -5 -8 -16 -28 -24
-45 -8 -16 -24 -43 -34 -60 -11 -16 -20 -39 -20 -50 -1 -11 -7 -29 -15 -40
-49 -71 -56 -93 -45 -148 28 -133 129 -117 343 57 58 47 108 86 111 86 3 0 27
21 54 47 27 27 72 66 101 88 29 22 64 51 76 65 13 14 44 47 68 73 25 27 50 46
56 42 15 -9 12 -41 -6 -56 -19 -15 -54 -82 -54 -102 0 -8 -11 -22 -24 -31 -53
-34 -103 -299 -62 -329 9 -6 20 -25 24 -41 6 -21 18 -32 47 -42 22 -7 49 -14
61 -14 55 0 242 99 264 140 6 11 15 20 20 20 17 0 98 60 142 105 24 24 69 55
99 69 43 19 67 39 105 87 54 69 75 92 179 190 39 37 84 85 100 108 17 22 54
59 83 81 28 22 52 48 52 57 0 19 56 103 135 203 29 36 61 85 72 110 29 64 56
86 88 72 14 -6 25 -17 25 -25 0 -7 14 -30 32 -51 l32 -39 -27 -21 c-15 -12
-27 -27 -27 -33 0 -7 -9 -18 -20 -26 -26 -18 -91 -103 -115 -152 -11 -22 -35
-54 -52 -71 -18 -17 -33 -37 -33 -44 0 -7 -18 -36 -39 -65 -21 -28 -58 -98
-81 -156 -23 -57 -51 -124 -62 -149 -16 -34 -19 -57 -15 -99 8 -76 26 -97 119
-143 29 -14 85 -10 92 7 3 9 18 15 37 15 17 0 48 9 68 19 20 11 48 22 63 25
14 3 40 18 57 32 17 14 35 23 41 19 5 -3 17 4 27 15 10 12 43 34 73 50 30 15
64 38 74 49 11 12 34 29 52 37 17 8 40 31 50 50 14 26 36 44 84 68 50 25 66
38 68 57 2 13 22 43 45 67 23 23 46 59 52 80 8 27 19 41 42 51 17 8 36 24 42
37 6 13 15 24 21 24 5 0 10 6 10 14 0 26 50 76 76 76 16 0 24 6 24 18 0 25 52
123 72 136 13 8 21 6 35 -6 17 -16 18 -14 20 25 2 29 9 46 23 56 11 7 20 21
20 31 0 9 9 25 20 35 26 24 43 9 65 -57 l17 -52 -79 -77 c-94 -93 -108 -109
-156 -182 -21 -31 -44 -60 -51 -64 -7 -4 -15 -32 -18 -61 -3 -29 -12 -60 -21
-70 -9 -10 -20 -34 -23 -53 -4 -19 -14 -44 -22 -57 -17 -26 -25 -151 -13 -185
5 -12 5 -34 1 -48 -8 -26 -6 -27 37 -34 32 -5 51 -2 68 9 14 9 32 16 42 16 10
0 50 16 88 35 39 19 76 35 83 35 16 0 48 19 80 48 14 12 29 22 35 22 5 0 25
13 43 30 19 16 54 39 77 51 23 12 52 31 65 42 17 16 25 18 34 9 9 -9 9 -15 0
-24 -14 -14 -16 -130 -3 -144 5 -5 11 -22 13 -39 l3 -30 82 -3 c67 -2 87 1
115 18 18 11 40 20 48 20 19 0 86 33 109 54 9 8 29 18 44 22 16 3 49 22 74 41
38 29 50 34 82 29 33 -6 37 -4 51 26 21 45 64 75 84 59 20 -17 2 -66 -31 -88
-23 -15 -24 -21 -19 -62 4 -31 1 -55 -8 -73 -10 -19 -15 -61 -14 -134 l0 -107
34 -34 c19 -18 45 -38 58 -43 32 -12 132 -2 179 17 20 9 40 13 43 10 4 -3 18
0 33 7 14 8 38 12 51 10 18 -4 34 3 54 23 17 15 41 28 55 29 15 2 29 3 32 3 4
1 10 12 13 25 4 16 22 33 52 48 26 12 49 29 51 36 3 7 20 20 37 28 72 36 150
94 228 166 59 56 89 78 108 78 16 0 37 12 55 30 16 17 35 30 42 30 7 0 19 13
27 28 8 15 26 33 40 40 15 6 31 23 36 37 5 14 14 25 19 25 5 0 13 10 17 22 3
12 26 42 49 67 67 73 175 221 175 241 0 32 -27 29 -61 -7 -47 -48 -164 -143
-177 -143 -6 0 -14 -9 -17 -20 -4 -11 -29 -30 -59 -44 -28 -13 -58 -31 -65
-40 -7 -9 -19 -16 -26 -16 -7 0 -15 -6 -18 -14 -6 -15 -135 -79 -182 -90 -16
-4 -40 -17 -52 -28 -12 -12 -29 -18 -40 -14 -10 3 -40 -6 -68 -19 -27 -13 -50
-23 -52 -22 -6 7 26 79 44 99 11 13 39 51 62 85 22 34 63 81 90 104 32 28 53
56 62 83 7 23 21 52 30 66 9 14 25 50 35 80 10 30 33 77 52 104 24 35 36 66
43 110 18 127 6 227 -31 261 -10 9 -33 18 -51 21 -31 5 -43 -1 -120 -64 -47
-39 -89 -79 -95 -89 -12 -25 -148 -153 -162 -153 -6 0 -21 -15 -33 -32 -44
-63 -84 -108 -96 -108 -7 0 -13 -6 -13 -14 0 -16 -71 -76 -90 -76 -7 0 -25
-13 -40 -30 -15 -16 -37 -30 -49 -30 -12 0 -18 -5 -15 -13 9 -26 -210 -187
-255 -187 -11 0 -32 -10 -48 -23 -61 -51 -303 -187 -331 -187 -7 0 -25 -9 -41
-21 -20 -14 -35 -18 -54 -14 -36 9 -35 36 3 78 17 19 30 39 30 44 0 5 18 27
40 48 22 22 50 57 61 79 21 41 78 97 155 151 69 50 193 173 200 199 3 13 17
34 30 47 26 24 33 83 14 118 -14 27 -64 44 -105 37 -75 -14 -304 -243 -388
-388 -15 -27 -33 -48 -39 -48 -6 0 -30 -16 -54 -35 -23 -19 -47 -35 -52 -35
-5 0 -15 -7 -22 -15 -25 -30 -148 -105 -173 -105 -18 0 -35 -12 -57 -40 -17
-22 -38 -40 -45 -40 -7 0 -18 -7 -25 -15 -7 -9 -19 -14 -27 -11 -7 3 -13 -1
-13 -8 0 -16 -83 -66 -109 -66 -9 0 -22 -5 -29 -12 -13 -13 -97 -17 -109 -4
-4 5 -3 11 3 13 7 2 10 12 7 23 -7 25 39 107 88 160 22 23 39 46 39 51 0 15
72 89 118 121 24 16 47 40 52 53 10 26 80 65 115 65 12 0 39 11 59 25 20 14
50 32 67 40 47 25 69 52 69 85 0 17 7 44 15 60 28 54 -1 74 -120 84 -59 5 -74
9 -92 31 -26 30 -30 67 -8 85 8 7 15 21 15 32 0 10 11 29 23 42 27 27 43 128
27 171 -8 21 -16 25 -53 25 -42 0 -77 -21 -77 -46 0 -6 -13 -20 -30 -32 -16
-12 -37 -37 -46 -55 -19 -36 -53 -82 -103 -135 -51 -55 -81 -97 -81 -113 0
-25 -125 -173 -140 -164 -4 2 -10 -14 -14 -36 -5 -34 -12 -43 -37 -52 -17 -7
-32 -21 -35 -33 -3 -12 -17 -32 -30 -45 -13 -12 -24 -27 -24 -31 0 -26 -71
-105 -164 -184 -58 -48 -108 -94 -110 -101 -3 -7 -19 -13 -35 -13 -23 0 -44
-13 -88 -55 -36 -34 -67 -55 -81 -55 -12 0 -41 -12 -64 -27 -27 -18 -56 -28
-87 -30 -116 -5 -159 -11 -183 -27 -21 -13 -27 -14 -36 -3 -8 10 -1 34 31 97
32 65 65 108 142 189 54 59 107 107 116 109 17 3 37 21 67 60 14 18 30 23 87
28 39 3 80 7 92 10 30 6 69 79 76 144 5 48 3 58 -18 82 -13 15 -40 34 -60 42
-20 9 -50 27 -67 41 -16 14 -36 25 -44 25 -8 0 -18 8 -21 18 -4 9 -18 31 -31
48 -14 17 -35 56 -47 85 -18 46 -26 55 -50 57 -38 5 -63 -27 -136 -169 -10
-20 -30 -44 -44 -53 -14 -9 -25 -24 -25 -34 0 -9 -19 -37 -42 -62 -23 -25 -53
-61 -67 -81 -47 -66 -145 -183 -192 -229 -123 -121 -187 -178 -215 -193 -17
-9 -34 -23 -37 -31 -4 -9 -22 -22 -42 -30 -19 -8 -35 -19 -35 -25 0 -12 -126
-111 -141 -111 -6 0 -26 -12 -44 -27 -60 -51 -129 -104 -205 -159 -41 -29 -87
-63 -102 -74 -32 -24 -46 -25 -77 -4 -22 16 -23 22 -18 81 3 47 11 71 26 87
13 13 21 35 21 55 0 25 9 41 34 65 18 17 37 46 41 64 10 50 137 187 203 220
55 27 123 98 141 144 5 13 7 54 4 91 -5 60 -9 70 -37 94 -40 34 -99 60 -157
68 -51 8 -151 -9 -184 -30 -11 -8 -45 -23 -75 -35 -30 -12 -71 -38 -91 -58
-44 -47 -86 -69 -100 -55 -5 5 -7 17 -3 27 8 22 131 116 153 117 12 0 11 2 -4
8 -13 5 -31 1 -53 -11 -29 -16 -38 -17 -68 -6 -31 11 -36 10 -50 -10 -8 -12
-22 -22 -30 -22 -8 0 -14 -4 -14 -10 0 -9 -101 -60 -118 -60 -4 0 -24 -9 -45
-20 -21 -11 -42 -18 -47 -15 -5 3 -11 1 -15 -5 -3 -5 -22 -10 -41 -10 -19 0
-34 -5 -34 -10 0 -6 -17 -18 -37 -27 -119 -51 -163 -64 -184 -52 -11 6 -27 5
-44 -1 -18 -7 -31 -6 -45 2 -16 10 -23 8 -45 -12 -21 -19 -29 -22 -43 -13 -30
19 -7 116 37 154 21 17 31 35 31 53 0 19 6 29 20 33 13 3 22 17 26 40 4 19 13
37 20 40 8 3 14 18 14 35 0 21 10 39 38 63 20 19 40 35 45 35 4 0 7 15 7 33 0
40 31 103 83 171 20 27 37 53 37 58 0 5 19 39 43 76 24 37 58 98 77 135 20 42
43 73 57 80 12 5 23 18 23 28 0 10 15 33 34 51 18 18 36 45 40 60 3 15 16 33
29 39 12 7 26 18 30 26 4 7 23 19 42 27 19 8 36 24 40 38 10 36 46 111 60 128
7 8 16 30 20 48 4 18 15 37 26 42 10 6 19 16 19 22 0 6 16 28 35 49 40 44 43
67 16 100 l-19 24 -30 -28 c-16 -15 -35 -27 -42 -25 -8 2 -19 -14 -27 -42 -7
-25 -31 -67 -52 -93 -22 -26 -43 -58 -47 -70 -3 -12 -15 -31 -25 -42 -52 -54
-171 -219 -194 -268 -10 -21 -26 -42 -36 -47 -10 -6 -27 -29 -37 -53 -10 -23
-37 -64 -60 -90 -23 -27 -42 -53 -42 -58 0 -6 -16 -43 -35 -83 -19 -40 -35
-80 -35 -88 0 -9 -9 -27 -20 -41 -11 -13 -31 -48 -45 -76 -15 -28 -33 -51 -41
-51 -7 0 -14 -4 -14 -8 0 -5 -6 -16 -13 -27 -13 -17 -15 -17 -45 5 -17 12 -33
34 -37 49 -3 14 -20 43 -36 64 -17 20 -27 42 -24 47 3 6 -2 13 -12 16 -10 4
-34 22 -53 40 -19 18 -48 46 -65 62 -16 16 -41 47 -54 70 -13 22 -32 42 -41
45 -9 2 -37 34 -63 70 -60 83 -64 131 -16 171 17 14 37 26 45 26 8 0 14 10 14
23 0 41 28 82 72 106 24 13 51 30 60 38 9 8 21 12 26 9 5 -3 12 2 14 12 3 10
21 26 40 35 35 17 158 132 158 148 0 4 6 12 13 16 19 12 37 60 37 100 0 23 8
45 21 59 18 19 19 25 7 43 -7 12 -26 23 -43 26 -41 7 -104 2 -98 -8z m-487
-621 c0 -11 -19 -15 -25 -6 -3 5 1 10 9 10 9 0 16 -2 16 -4z m5641 -666 c21
-12 26 -62 10 -114 -5 -17 -15 -51 -22 -76 -7 -25 -21 -54 -31 -66 -10 -11
-18 -25 -18 -31 0 -6 -7 -16 -15 -23 -9 -7 -13 -15 -11 -17 11 -12 -85 -136
-168 -216 -50 -49 -95 -93 -99 -97 -77 -77 -138 -130 -153 -130 -4 0 -15 -7
-25 -16 -15 -14 -20 -14 -47 0 -38 20 -58 86 -41 137 11 33 68 103 77 95 4 -4
70 71 132 148 13 17 35 40 48 52 13 11 31 32 40 46 9 14 34 50 54 80 20 31 60
72 88 93 27 20 50 43 50 51 0 7 17 24 38 38 20 13 43 31 51 40 16 19 17 19 42
6z m-5397 -189 c19 -21 17 -61 -4 -88 -25 -31 -40 -62 -40 -83 0 -11 -4 -28
-9 -38 -29 -57 -46 -121 -42 -157 2 -21 -30 -57 -61 -68 -22 -8 -71 48 -63 72
2 9 9 41 15 71 6 30 15 59 20 64 6 6 10 27 10 47 0 21 5 41 10 44 6 3 10 18
10 33 0 32 22 62 70 96 43 30 62 32 84 7z m1365 -109 c22 -10 38 -27 42 -43 6
-23 1 -31 -32 -55 -21 -16 -41 -36 -44 -45 -5 -16 -79 -69 -96 -69 -6 0 -8 -4
-5 -9 5 -7 -88 -96 -152 -145 -15 -12 -48 -41 -73 -66 -57 -56 -261 -228 -297
-251 -15 -9 -38 -28 -51 -43 -14 -14 -35 -26 -47 -26 -13 0 -35 -12 -49 -26
-30 -30 -54 -28 -66 4 -7 19 -3 28 20 50 32 30 71 98 71 123 0 9 7 22 16 29 8
8 21 27 28 44 7 17 32 49 55 71 23 22 61 59 83 83 23 23 45 42 48 42 4 0 28
20 52 45 30 30 54 45 71 45 17 0 28 7 32 21 4 11 23 32 44 47 20 15 75 57 121
93 134 104 164 115 229 81z"/>
<path d="M15173 3832 c-18 -9 -33 -25 -33 -34 0 -9 -15 -29 -34 -45 -40 -34
-51 -62 -35 -97 13 -28 33 -32 76 -14 15 6 37 10 49 9 11 -1 28 7 39 19 10 11
29 20 42 20 19 0 23 5 23 28 0 15 5 33 11 39 8 8 4 16 -15 28 -14 10 -26 23
-26 30 0 10 -56 40 -64 34 -1 0 -16 -8 -33 -17z"/>
<path d="M19079 3756 c-12 -14 -27 -23 -32 -19 -6 3 -7 1 -4 -4 4 -6 -22 -32
-56 -57 -39 -29 -70 -61 -81 -84 -10 -20 -24 -44 -32 -52 -42 -45 -134 -185
-134 -203 0 -8 -10 -22 -21 -33 -12 -10 -41 -49 -66 -86 -24 -38 -47 -68 -52
-68 -4 0 -96 -88 -204 -195 -108 -107 -202 -195 -209 -195 -12 0 -78 -67 -78
-79 0 -13 -139 -131 -154 -131 -8 0 -20 -9 -26 -21 -17 -31 -177 -189 -192
-189 -17 0 -128 -96 -203 -176 -54 -58 -85 -78 -85 -56 0 7 74 95 130 153 14
15 33 42 43 60 10 19 44 57 77 84 33 28 65 63 72 79 17 42 67 96 88 96 34 0
110 92 110 133 0 5 23 43 50 84 52 78 53 80 50 153 -2 64 -7 76 -40 90 -23 10
-51 9 -132 -1 -57 -7 -121 -14 -143 -16 -67 -5 -109 -15 -127 -30 -9 -8 -21
-12 -26 -9 -5 3 -15 -1 -21 -8 -8 -9 -42 -17 -89 -21 -42 -3 -96 -8 -119 -11
-42 -5 -42 -5 -63 40 -11 25 -20 50 -20 55 0 6 -15 11 -33 11 -40 0 -117 -64
-117 -98 0 -13 -15 -31 -40 -49 -22 -15 -40 -31 -40 -35 0 -9 -124 -139 -272
-287 -60 -59 -108 -111 -108 -117 -1 -5 -19 -27 -41 -49 -22 -22 -46 -54 -53
-71 -8 -16 -32 -45 -55 -63 -24 -19 -41 -41 -41 -53 0 -12 -29 -53 -64 -92
-34 -39 -71 -87 -81 -106 -9 -19 -24 -43 -32 -52 -15 -17 -43 -64 -63 -108 -7
-14 -16 -32 -21 -40 -9 -15 -66 -131 -100 -205 -10 -22 -21 -59 -25 -82 -6
-37 -3 -48 20 -78 30 -39 60 -45 76 -16 5 11 34 33 62 50 29 16 66 43 82 60
17 17 37 31 47 31 9 0 23 7 30 17 8 9 26 24 41 33 28 17 83 88 118 152 11 21
31 45 44 54 14 8 28 29 31 45 4 16 15 35 25 42 11 8 40 44 65 81 25 37 61 87
80 111 19 23 35 45 35 49 0 4 25 33 56 64 31 31 63 71 71 87 9 17 38 53 64 82
27 28 49 58 49 65 0 7 10 25 23 39 21 25 39 31 187 69 25 6 60 18 79 27 19 8
53 17 76 18 23 2 56 10 73 19 17 9 39 16 48 16 9 0 37 10 61 22 53 27 74 18
86 -36 9 -35 7 -39 -42 -91 -28 -29 -51 -59 -51 -65 0 -6 -36 -47 -79 -93 -47
-49 -92 -107 -111 -145 -17 -34 -42 -70 -56 -78 -13 -9 -24 -24 -24 -34 0 -10
-31 -52 -70 -93 -38 -41 -70 -79 -70 -84 0 -5 -20 -30 -44 -56 -50 -52 -66
-77 -66 -105 0 -11 -19 -41 -42 -67 -40 -45 -41 -48 -27 -74 31 -56 130 -35
185 41 20 26 42 48 49 48 8 0 55 43 106 95 50 52 141 138 202 192 60 54 113
103 118 108 47 58 96 106 113 111 12 3 32 21 45 39 13 19 28 35 33 35 5 0 21
14 35 30 15 18 34 30 49 30 16 0 27 8 33 23 14 37 269 290 286 283 17 -6 20
-22 5 -31 -5 -3 -10 -15 -10 -25 0 -11 -9 -24 -19 -29 -10 -6 -23 -24 -29 -40
-6 -16 -26 -46 -44 -68 -19 -21 -40 -54 -48 -73 -17 -45 -60 -122 -75 -135 -6
-5 -27 -41 -47 -80 -20 -38 -44 -86 -54 -106 -11 -20 -38 -65 -61 -100 -24
-34 -43 -68 -43 -75 0 -21 -69 -150 -90 -169 -11 -10 -20 -22 -20 -27 0 -5
-18 -45 -40 -89 -22 -44 -40 -88 -40 -98 0 -17 -21 -73 -55 -146 -8 -16 -22
-66 -31 -110 -9 -44 -20 -84 -24 -90 -4 -5 -8 -32 -9 -60 0 -27 -5 -64 -10
-82 -7 -22 -5 -39 5 -58 8 -15 14 -39 14 -54 0 -14 4 -32 9 -40 6 -9 5 -23 -2
-38 -7 -16 -7 -30 0 -46 20 -40 46 -112 48 -129 0 -9 6 -22 11 -30 6 -7 15
-45 21 -85 19 -124 60 -185 146 -213 34 -10 44 -10 78 5 21 10 39 21 39 25 0
4 20 18 45 31 33 17 51 35 64 64 35 75 79 180 86 205 4 14 16 36 26 49 11 13
19 36 19 51 0 15 9 35 20 45 11 10 20 24 20 32 0 7 7 30 16 51 19 42 19 71 -1
91 -18 19 -72 5 -91 -25 -9 -13 -24 -24 -33 -24 -9 0 -22 -5 -29 -12 -9 -9
-13 -7 -18 8 -15 48 -27 62 -52 62 -28 0 -58 32 -67 75 -4 15 -10 27 -14 27
-14 0 -31 50 -31 90 0 21 -4 42 -10 45 -5 3 -10 16 -10 29 0 12 -6 31 -14 41
-7 10 -11 27 -8 38 3 10 -1 43 -8 73 -12 48 -11 61 3 102 10 26 17 60 17 75 0
16 19 67 42 114 23 48 41 93 41 102 -1 9 5 30 13 47 7 16 16 49 20 73 4 23 14
47 24 54 9 7 21 23 25 37 4 14 13 32 19 40 22 26 53 85 65 122 7 20 34 61 61
93 28 31 50 61 50 66 0 6 21 32 48 58 30 31 57 71 76 117 17 38 38 81 47 95
10 14 38 65 64 115 25 49 64 106 85 127 43 41 109 134 139 195 4 9 20 18 35
20 14 2 26 7 26 11 0 5 18 29 40 54 22 25 40 48 40 52 0 9 67 91 117 141 24
25 46 59 52 82 7 25 19 43 35 50 15 6 27 23 31 41 4 17 22 50 41 73 50 59 66
94 62 136 -3 32 -7 37 -30 40 -19 2 -34 -4 -49 -22z m-2069 -1183 c0 -3 -11
-21 -25 -39 -14 -18 -25 -40 -25 -49 0 -8 -10 -32 -23 -53 -12 -20 -28 -48
-35 -62 -26 -55 -186 -260 -202 -260 -5 0 -21 -22 -34 -48 -31 -62 -61 -97
-171 -205 -148 -146 -175 -168 -203 -170 -22 -2 -28 3 -30 25 -2 19 6 35 31
61 19 19 38 48 42 66 4 17 27 51 53 77 26 26 54 64 64 85 10 24 26 41 40 44
13 3 41 31 63 61 22 29 43 54 47 54 8 0 71 94 88 130 28 63 77 119 106 120 7
0 24 16 38 35 15 19 30 34 34 33 4 -1 32 22 62 50 48 46 80 64 80 45z"/>
<path d="M1896 3642 c-14 -16 -26 -34 -26 -41 0 -24 -71 -108 -112 -132 -23
-13 -58 -41 -79 -61 -21 -21 -41 -38 -45 -38 -4 0 -4 15 0 33 3 19 20 44 41
62 l36 31 -21 22 c-34 36 -61 28 -108 -29 -23 -29 -42 -62 -42 -75 0 -13 -9
-28 -20 -34 -11 -6 -20 -21 -20 -33 0 -12 -16 -39 -35 -59 -18 -21 -31 -38
-27 -38 3 0 2 -4 -4 -10 -5 -5 -24 -10 -42 -12 -18 -1 -38 -8 -44 -15 -6 -7
-22 -13 -37 -13 -14 -1 -41 -14 -60 -30 -19 -16 -38 -27 -42 -25 -4 3 -10 -2
-13 -11 -3 -8 -10 -13 -15 -10 -5 3 -14 -1 -21 -9 -7 -8 -19 -15 -27 -15 -8 0
-20 -15 -28 -34 -9 -20 -26 -38 -45 -46 -35 -14 -40 -46 -15 -94 8 -15 15 -50
15 -76 0 -30 6 -52 15 -60 8 -7 15 -24 15 -39 0 -14 4 -41 10 -60 5 -19 6 -39
2 -45 -3 -6 -7 -34 -8 -62 -1 -37 -9 -63 -28 -90 -14 -21 -26 -46 -26 -54 0
-9 -18 -30 -39 -48 -38 -31 -69 -91 -57 -110 7 -12 -51 -132 -63 -132 -12 0
-46 -80 -43 -103 1 -10 -5 -20 -13 -23 -8 -4 -15 -16 -15 -29 0 -12 -7 -28
-15 -35 -9 -7 -25 -33 -36 -57 -11 -23 -24 -43 -29 -43 -6 0 -10 -15 -10 -34
0 -26 -7 -41 -31 -60 -21 -18 -29 -32 -25 -44 4 -12 -3 -27 -19 -42 -14 -13
-25 -29 -25 -36 0 -7 -4 -14 -8 -16 -12 -5 -49 -97 -58 -143 -4 -22 -13 -46
-21 -53 -7 -8 -11 -18 -7 -23 3 -5 -4 -26 -15 -45 -12 -19 -21 -44 -21 -54 0
-30 -57 -147 -74 -153 -9 -4 -16 -13 -16 -20 0 -8 -6 -20 -14 -26 -8 -6 -17
-31 -20 -56 -4 -24 -14 -49 -23 -57 -26 -21 -83 -150 -83 -187 0 -19 12 -61
27 -93 25 -55 29 -58 60 -56 18 1 33 6 33 10 0 21 75 158 89 163 15 5 71 87
71 104 0 4 9 16 20 26 11 10 20 26 20 37 0 20 16 52 42 83 9 11 18 36 20 55 2
25 9 36 24 40 21 5 104 95 104 112 0 5 6 8 13 8 8 0 21 8 29 18 19 22 32 72
18 72 -18 0 -11 28 18 73 15 25 34 64 42 88 7 24 24 59 37 77 14 18 34 54 45
80 50 115 68 151 77 157 14 8 46 78 60 133 7 23 16 42 21 42 6 0 10 6 10 14 0
8 14 28 31 46 28 27 31 37 32 93 0 54 4 65 29 90 15 16 32 26 38 22 5 -3 10
-1 10 5 0 7 15 26 33 44 18 18 36 40 40 49 4 10 17 17 35 17 34 0 52 16 52 47
0 13 6 32 12 43 10 16 10 26 -1 52 -17 42 -14 118 5 139 8 8 14 23 14 31 0 9
14 30 30 48 17 18 30 35 30 39 0 14 57 62 71 59 10 -2 14 8 14 37 0 48 16 85
54 132 25 30 28 39 18 54 -8 13 -9 23 -2 33 6 7 22 31 37 53 15 22 37 43 50
47 25 7 89 83 126 150 12 23 29 46 37 52 8 6 15 16 15 21 0 6 7 16 15 23 11 9
15 32 15 81 0 63 -2 69 -29 88 l-28 20 -27 -27z"/>
<path d="M5150 3651 c-40 -10 -110 -62 -110 -82 0 -10 -4 -21 -10 -24 -5 -3
-17 -22 -26 -41 -10 -20 -27 -40 -40 -44 -12 -5 -27 -23 -33 -42 -6 -18 -27
-46 -46 -61 -19 -15 -35 -36 -35 -47 0 -10 -12 -32 -26 -49 -17 -20 -23 -37
-19 -50 3 -11 1 -22 -5 -26 -5 -3 -10 -17 -10 -29 0 -26 -87 -176 -102 -176
-5 0 -7 -9 -3 -19 4 -14 -4 -30 -28 -54 -47 -46 -69 -81 -62 -99 4 -9 -9 -30
-32 -54 -40 -41 -67 -89 -58 -104 5 -8 -37 -94 -56 -115 -5 -5 -9 -25 -9 -45
0 -23 -9 -46 -25 -65 -49 -58 -77 -110 -92 -165 -9 -36 -24 -64 -44 -82 -16
-15 -29 -34 -29 -43 0 -9 -18 -49 -41 -90 -30 -54 -55 -85 -91 -112 -28 -21
-83 -71 -122 -111 -38 -41 -84 -81 -100 -89 -16 -8 -51 -35 -77 -60 -42 -39
-52 -44 -79 -38 -23 5 -30 3 -30 -8 0 -15 -67 -77 -82 -77 -4 0 -32 -12 -62
-26 -46 -22 -61 -24 -85 -16 -24 8 -36 7 -65 -9 -61 -32 -198 -23 -212 15 -3
8 6 31 19 53 14 21 28 55 31 76 4 21 14 41 21 44 8 3 12 9 9 15 -3 5 13 32 37
60 36 43 43 59 47 105 4 51 7 56 37 69 36 15 78 60 115 124 14 23 40 58 58 77
37 38 41 70 13 104 -17 20 -23 22 -39 12 -11 -6 -29 -9 -40 -6 -14 3 -25 -3
-36 -20 -9 -13 -27 -29 -41 -35 -15 -7 -22 -17 -19 -25 3 -9 -29 -43 -87 -93
-51 -44 -99 -88 -108 -98 -23 -27 -155 -154 -223 -212 -31 -27 -57 -54 -57
-59 -1 -6 -25 -28 -53 -49 -29 -21 -64 -53 -78 -72 -21 -28 -150 -140 -272
-234 -40 -31 -61 -15 -64 46 -2 26 0 53 5 58 4 6 13 31 20 55 7 25 20 55 28
68 9 13 17 34 18 47 2 13 34 64 72 112 37 49 79 111 93 138 13 26 41 63 62 80
21 18 38 38 38 44 0 6 18 26 41 44 23 18 48 42 58 52 9 11 35 39 59 64 53 56
59 103 15 125 -55 27 -137 1 -172 -56 -12 -20 -33 -38 -49 -42 -15 -3 -35 -13
-44 -22 -9 -8 -22 -12 -28 -8 -6 3 -42 -12 -81 -34 -39 -23 -76 -41 -82 -41
-17 -1 -42 -22 -50 -42 -3 -10 -16 -18 -27 -18 -11 0 -28 -4 -38 -9 -9 -5 -28
-14 -42 -20 -14 -6 -32 -15 -40 -20 -45 -26 -150 -70 -180 -76 -19 -4 -45 -16
-57 -28 -19 -17 -27 -19 -48 -9 -14 6 -38 9 -54 6 -34 -7 -40 1 -48 66 -5 40
-3 51 11 56 23 9 20 40 -6 59 -19 13 -21 18 -11 35 7 10 10 25 7 33 -2 7 13
36 34 63 21 27 37 56 35 65 -2 9 3 22 12 29 8 7 15 19 15 27 0 7 11 36 25 64
18 34 31 49 43 47 13 -2 17 4 17 28 0 18 8 41 17 51 10 11 18 30 18 42 0 13
14 41 32 64 23 29 32 51 33 79 1 26 7 43 18 49 9 6 17 15 17 21 0 5 14 30 30
55 17 24 30 51 30 60 0 9 17 37 38 62 21 25 51 70 65 99 15 30 43 73 62 96 22
28 35 54 35 72 0 39 27 76 49 69 13 -4 40 15 91 63 64 60 72 72 66 95 -6 24
-9 26 -65 25 -56 -1 -63 -4 -119 -49 -40 -33 -70 -69 -92 -110 -17 -33 -38
-63 -45 -66 -20 -7 -49 -55 -47 -77 1 -22 -21 -68 -54 -112 -13 -17 -24 -36
-24 -41 0 -6 -16 -30 -35 -53 -20 -24 -45 -62 -55 -86 -11 -23 -32 -52 -47
-64 -30 -24 -63 -73 -63 -96 0 -21 -28 -29 -55 -14 -35 19 -164 9 -176 -13 -5
-9 -27 -21 -48 -27 -30 -8 -46 -21 -73 -63 -19 -28 -38 -65 -42 -81 -4 -16
-22 -43 -40 -60 -22 -22 -39 -54 -56 -106 -13 -41 -32 -90 -42 -108 -10 -18
-18 -43 -18 -57 0 -13 -5 -27 -10 -30 -5 -3 -10 -24 -10 -46 0 -22 -7 -51 -16
-64 -13 -21 -14 -34 -4 -97 6 -43 20 -87 34 -108 12 -19 26 -46 29 -60 8 -30
-11 -147 -28 -175 -7 -11 -16 -67 -20 -125 -4 -58 -12 -116 -17 -129 -15 -41
-20 -131 -8 -166 14 -43 57 -63 99 -45 28 11 61 42 74 70 4 8 19 35 33 60 14
25 30 61 36 80 5 19 18 53 28 75 10 22 30 67 43 100 21 52 28 60 53 63 16 2
33 8 39 13 5 5 25 9 45 9 20 0 40 3 44 7 4 4 22 8 41 9 19 0 65 16 101 35 47
23 83 34 117 35 37 2 53 7 60 21 6 10 25 33 44 51 26 26 39 33 58 28 14 -4 25
-2 25 3 0 8 98 61 113 61 15 0 -6 -106 -28 -145 -14 -23 -25 -56 -25 -73 0
-18 -9 -49 -20 -69 -11 -21 -20 -43 -20 -49 0 -7 -7 -25 -15 -40 -21 -41 -19
-68 11 -134 21 -47 24 -62 15 -79 -7 -12 -16 -21 -21 -21 -23 0 -8 -29 23 -44
31 -16 32 -15 57 12 32 36 161 141 206 167 19 11 34 28 34 37 0 9 11 25 26 35
56 40 208 167 242 204 20 21 41 39 47 39 5 0 23 15 40 33 16 17 41 38 53 45
22 12 23 12 17 -10 -7 -21 -14 -36 -44 -88 -27 -49 -40 -78 -36 -82 3 -3 -2
-22 -11 -44 -24 -56 -13 -124 27 -173 34 -43 130 -98 149 -86 6 4 62 9 123 12
77 3 117 9 128 19 8 8 35 14 59 14 40 0 49 5 91 50 27 27 64 56 84 64 19 8 52
31 73 51 49 47 125 121 170 168 41 42 66 44 70 7 1 -14 10 -42 19 -63 13 -31
14 -45 6 -70 -6 -18 -14 -46 -18 -64 -3 -17 -13 -37 -21 -44 -16 -13 -19 -45
-4 -54 16 -10 12 -43 -8 -57 -9 -7 -25 -26 -35 -41 -17 -26 -17 -34 -5 -79 19
-77 66 -98 176 -78 1 0 2 7 2 16 0 10 52 68 115 130 63 62 115 118 115 123 0
5 16 27 36 48 51 54 87 110 79 122 -3 6 17 38 46 71 56 64 89 77 109 40 7 -13
21 -20 40 -20 17 0 39 -9 49 -19 15 -15 23 -17 38 -7 11 6 61 32 111 58 50 26
93 52 97 58 3 6 21 17 38 24 18 8 43 24 57 35 59 49 128 101 135 101 4 0 23
14 43 31 28 25 35 39 36 68 l1 36 -70 1 c-38 0 -78 -3 -88 -8 -10 -5 -84 -10
-165 -12 -105 -2 -154 -7 -170 -17 -30 -19 -42 -1 -42 67 0 59 -15 77 -57 72
-19 -2 -29 -10 -31 -23 -2 -11 -12 -29 -21 -40 -20 -23 -34 -59 -52 -132 -7
-30 -25 -66 -41 -83 -15 -17 -28 -42 -28 -56 0 -17 -19 -44 -60 -85 -44 -44
-60 -67 -60 -88 0 -29 -56 -111 -76 -111 -6 0 -11 -8 -10 -17 1 -14 -6 -18
-31 -17 -32 2 -33 0 -33 -36 0 -34 -8 -46 -60 -99 -102 -101 -119 -93 -115 51
2 77 7 104 23 132 12 20 24 60 28 88 12 104 54 208 113 282 31 39 63 83 71 98
9 16 40 43 70 61 41 25 56 40 62 65 5 18 15 35 23 39 8 3 15 10 15 16 0 6 12
23 26 37 14 14 45 47 70 74 24 27 47 47 50 43 10 -9 54 44 54 65 0 29 20 60
35 54 9 -3 19 11 31 42 10 26 21 52 26 58 5 6 6 19 2 28 -4 11 3 19 23 28 40
17 63 38 63 59 0 10 22 44 49 76 26 33 52 70 56 83 4 14 18 36 30 50 29 31
105 142 105 153 0 5 13 25 29 45 19 24 31 54 35 87 14 108 24 152 44 201 22
55 32 107 36 199 3 59 2 61 -32 88 -36 27 -47 30 -92 18z m-100 -517 c0 -8
-13 -39 -29 -69 -16 -30 -37 -75 -47 -100 -9 -25 -27 -54 -40 -64 -12 -10 -29
-33 -37 -53 -8 -19 -35 -62 -61 -95 -30 -40 -46 -71 -46 -90 0 -21 -12 -41
-45 -73 -25 -24 -45 -49 -45 -55 0 -10 -62 -83 -172 -200 -15 -16 -28 -36 -28
-43 0 -7 -11 -17 -25 -22 -14 -5 -25 -17 -25 -27 0 -29 -44 -77 -63 -70 -24 9
-21 49 8 88 55 76 75 109 81 136 4 15 12 35 20 43 7 8 31 50 54 93 22 43 58
103 78 133 20 31 44 68 52 82 8 15 34 57 58 94 23 37 42 77 42 89 0 11 16 40
35 63 19 24 35 47 35 53 0 5 10 19 23 30 12 12 30 33 40 47 13 19 27 26 50 26
18 0 39 4 47 10 17 10 40 -5 40 -26z"/>
<path d="M8238 3048 c-20 -24 -53 -64 -72 -90 -20 -25 -39 -48 -43 -50 -5 -1
-19 -25 -33 -53 -14 -27 -39 -66 -57 -85 -17 -20 -48 -69 -68 -110 -21 -41
-44 -82 -52 -91 -14 -17 -57 -94 -93 -165 -11 -23 -27 -47 -35 -54 -8 -7 -15
-19 -15 -26 0 -23 -115 -176 -164 -219 -25 -22 -71 -64 -102 -92 -31 -29 -63
-53 -70 -53 -8 0 -14 -6 -14 -14 0 -7 -18 -32 -40 -55 -34 -35 -43 -40 -60
-31 -16 8 -20 8 -20 -4 0 -17 -68 -76 -87 -76 -7 0 -33 -20 -57 -45 -25 -25
-51 -45 -59 -45 -7 0 -26 -13 -42 -30 -16 -16 -38 -30 -48 -30 -11 0 -42 -13
-69 -30 -26 -16 -56 -30 -65 -30 -9 0 -25 -9 -37 -20 -80 -77 -134 -110 -233
-145 -51 -18 -53 -18 -73 0 -35 31 -17 139 29 176 16 13 20 24 15 43 -5 19 -2
28 12 33 27 10 91 76 87 90 -5 15 36 43 62 43 12 0 30 7 41 15 10 8 28 15 39
15 11 0 34 9 50 20 17 11 37 20 45 20 24 0 60 65 60 109 0 50 -17 63 -86 67
-36 2 -63 10 -81 24 -14 11 -32 20 -39 20 -22 0 -47 59 -40 98 4 26 1 38 -12
48 -14 11 -15 18 -5 56 6 23 14 50 18 59 7 17 -26 39 -67 43 -21 3 -30 -5 -50
-43 -14 -25 -36 -51 -50 -58 -13 -7 -31 -25 -39 -40 -8 -15 -28 -42 -46 -60
-18 -20 -30 -40 -26 -48 3 -9 -9 -30 -26 -50 -17 -20 -31 -40 -31 -46 0 -5
-11 -14 -25 -19 -14 -5 -28 -18 -32 -27 -13 -34 -46 -72 -69 -77 -13 -4 -29
-18 -36 -33 -7 -15 -32 -36 -55 -48 -23 -11 -52 -31 -65 -43 -53 -51 -117
-103 -124 -101 -23 4 -35 -3 -44 -26 -5 -14 -16 -25 -24 -25 -8 0 -24 -13 -36
-30 -12 -16 -30 -30 -39 -30 -10 0 -24 -7 -31 -15 -7 -8 -19 -15 -26 -15 -7 0
-37 -11 -66 -23 -61 -28 -108 -43 -160 -51 -20 -4 -39 -13 -42 -21 -10 -27
-46 -16 -92 28 -39 36 -45 46 -39 70 4 15 21 36 40 47 18 11 40 31 49 45 10
15 29 26 53 30 21 4 65 15 99 26 33 11 68 17 76 14 21 -8 68 12 68 29 0 8 19
30 41 48 23 18 54 46 69 62 l28 28 16 -31 c10 -18 24 -31 36 -31 22 0 75 74
85 118 3 17 13 36 21 43 8 6 14 19 14 29 0 9 8 28 19 41 25 33 33 61 37 137 2
53 -2 74 -22 113 -13 27 -24 55 -24 62 0 21 -86 97 -110 97 -11 0 -36 7 -55
15 -34 14 -36 13 -96 -26 -33 -22 -66 -38 -73 -36 -15 6 -40 -12 -49 -35 -4
-11 -17 -18 -31 -18 -13 0 -39 -14 -58 -30 -83 -77 -111 -106 -119 -127 -5
-13 -15 -23 -24 -23 -14 0 -49 -44 -50 -64 -1 -6 -7 -24 -14 -41 -8 -16 -13
-46 -12 -67 2 -26 -3 -39 -15 -46 -13 -7 -18 -20 -16 -42 1 -18 -6 -46 -16
-63 -13 -23 -17 -42 -12 -67 6 -36 -12 -90 -30 -90 -6 0 -10 -8 -10 -19 0 -10
-6 -24 -14 -30 -7 -6 -16 -26 -20 -44 -4 -17 -16 -39 -27 -48 -16 -12 -23 -33
-30 -94 -7 -68 -6 -81 10 -104 10 -14 21 -47 25 -73 6 -38 15 -54 55 -91 78
-73 153 -85 225 -36 25 16 54 29 63 28 29 -4 121 41 138 67 8 13 23 24 33 24
10 0 36 17 57 38 22 20 63 55 90 77 28 22 54 46 58 53 4 6 14 12 21 12 7 0 24
10 37 23 13 12 47 38 75 57 28 19 50 40 47 47 -2 6 10 19 29 27 18 9 40 31 48
49 8 17 24 34 35 35 30 6 95 73 95 98 0 24 86 134 105 134 6 0 17 10 24 23 42
81 72 105 79 62 7 -49 13 -66 31 -82 38 -35 36 -66 -6 -115 -21 -25 -51 -64
-68 -87 -16 -23 -40 -55 -52 -71 -13 -15 -23 -34 -23 -42 0 -7 -11 -25 -23
-38 -22 -24 -32 -65 -42 -170 -1 -19 -6 -60 -10 -91 -9 -69 8 -106 67 -149 43
-32 67 -37 85 -19 6 6 21 9 34 7 14 -2 32 6 45 18 11 12 41 25 65 29 24 4 73
25 109 47 36 22 73 42 83 43 33 7 75 44 71 63 -4 12 11 28 52 55 31 20 61 37
65 37 5 0 9 4 9 10 0 5 17 20 38 34 20 13 89 68 153 124 64 55 127 103 140
107 12 4 39 23 58 42 41 40 50 30 27 -31 -9 -24 -14 -49 -11 -57 2 -8 -16 -36
-41 -64 -56 -60 -84 -121 -84 -181 0 -39 -5 -50 -40 -84 -22 -22 -40 -46 -40
-54 0 -8 -7 -22 -15 -30 -12 -12 -15 -34 -13 -98 l3 -83 33 -3 c26 -3 39 3 62
28 17 18 30 41 30 51 0 10 3 19 8 19 4 0 13 15 21 33 7 17 19 46 27 63 7 17
17 40 22 50 15 37 54 94 64 94 6 0 28 -14 49 -31 l39 -31 38 20 c122 64 158
85 165 98 5 9 16 12 27 9 11 -4 26 2 37 13 10 11 34 22 54 25 20 3 62 17 93
31 31 14 60 26 65 26 5 0 11 7 15 15 3 8 15 15 27 15 24 0 89 63 89 85 0 28
-72 52 -141 48 -42 -2 -77 2 -103 12 -22 9 -51 13 -66 10 -18 -4 -39 1 -61 13
-60 35 -76 36 -111 7 -26 -22 -39 -26 -69 -22 -21 3 -42 0 -49 -7 -7 -6 -5 4
4 22 9 17 21 32 27 32 6 0 7 13 4 34 -4 20 -2 36 4 40 6 4 11 18 11 30 0 13 7
29 16 37 9 7 23 29 32 48 10 21 30 42 47 49 24 11 34 26 50 75 17 48 27 64 52
76 18 10 36 29 43 49 7 20 26 42 46 54 20 12 34 28 34 39 0 11 11 31 25 45 14
14 25 36 25 52 0 19 11 35 35 55 19 15 35 35 35 45 0 9 18 33 39 53 22 19 43
49 46 65 3 16 10 37 16 46 5 10 9 24 9 32 0 8 15 27 32 42 42 34 69 78 80 129
5 22 18 47 28 55 23 18 30 91 11 114 -25 29 -63 19 -103 -26z m-2289 -803 c48
-44 63 -107 44 -184 -14 -58 -36 -62 -85 -14 -24 23 -62 49 -86 59 l-43 17
-73 -37 c-41 -20 -78 -36 -84 -36 -6 0 -24 -11 -41 -25 -28 -24 -30 -25 -40
-8 -6 13 -3 33 13 72 13 29 27 56 32 59 5 4 16 18 24 30 11 17 46 34 130 62
146 49 160 49 209 5z"/>
</g>
</svg>
