<?xml version="1.0" standalone="no"?>
<!DOCTYPE svg PUBLIC "-//W3C//DTD SVG 20010904//EN"
 "http://www.w3.org/TR/2001/REC-SVG-20010904/DTD/svg10.dtd">
<svg version="1.0" xmlns="http://www.w3.org/2000/svg"
 width="1851.000000pt" height="634.000000pt" viewBox="0 0 1851.000000 634.000000"
 preserveAspectRatio="xMidYMid meet">
<metadata>
Created by potrace 1.16, written by Peter Selinger 2001-2019
</metadata>
<g transform="translate(0.000000,634.000000) scale(0.100000,-0.100000)"
fill="#ffffff" stroke="none">
<path d="M2151 6195 c-177 -86 -301 -200 -375 -344 -21 -41 -61 -104 -88 -139
-76 -98 -97 -146 -113 -258 -20 -138 -19 -160 9 -197 13 -18 27 -47 31 -65 6
-28 3 -39 -17 -60 -61 -67 -71 -90 -66 -156 7 -78 -6 -109 -72 -186 -28 -32
-56 -73 -63 -92 -30 -80 -157 -268 -246 -363 -21 -22 -43 -59 -50 -84 -14 -48
-34 -81 -96 -153 -55 -64 -79 -97 -99 -135 -9 -18 -20 -33 -25 -33 -5 0 -11
-10 -15 -22 -3 -13 -34 -58 -68 -100 -89 -110 -103 -129 -122 -165 -9 -18 -32
-44 -51 -58 -31 -24 -38 -26 -69 -15 -45 14 -50 38 -41 183 8 129 0 159 -62
235 -47 58 -88 77 -147 68 -25 -4 -52 -13 -59 -19 -7 -7 -29 -21 -50 -31 -43
-22 -64 -56 -85 -136 -25 -98 -30 -149 -16 -173 24 -41 35 -72 45 -121 5 -27
16 -57 25 -67 8 -9 21 -39 28 -66 7 -27 30 -72 50 -101 44 -61 73 -72 193 -74
110 -1 151 13 218 75 30 28 69 63 87 77 17 13 40 39 50 57 14 23 32 36 60 45
27 8 44 21 55 42 9 17 26 43 38 58 13 15 26 45 30 68 4 25 21 58 45 86 38 47
54 74 86 152 9 23 21 42 25 42 5 0 15 13 24 30 8 16 24 37 34 47 61 59 142
166 148 195 3 18 16 47 29 64 13 18 31 50 40 73 9 22 20 41 25 41 5 0 15 13
23 29 9 16 37 53 64 82 26 30 56 73 66 96 39 88 109 126 316 173 30 7 77 24
105 39 42 22 66 26 170 31 104 4 127 9 176 33 67 33 77 33 130 6 36 -20 51
-21 136 -16 72 5 103 3 130 -8 19 -8 33 -18 31 -22 -24 -49 -35 -63 -67 -81
-71 -42 -156 -134 -204 -222 -32 -58 -60 -94 -88 -115 -61 -45 -174 -155 -203
-198 -14 -21 -26 -48 -26 -60 -1 -39 -35 -121 -76 -182 -22 -33 -53 -86 -68
-117 -16 -34 -56 -88 -95 -128 -45 -46 -72 -84 -81 -112 -28 -87 -54 -134 -97
-175 -23 -23 -43 -51 -43 -62 0 -36 32 -115 59 -148 14 -17 34 -43 44 -57 10
-15 41 -40 70 -56 l52 -29 186 4 c164 4 197 8 270 31 46 14 102 29 124 34 75
16 120 42 182 106 34 34 79 72 100 82 70 36 131 98 138 141 9 54 20 66 95 104
62 32 66 36 86 93 24 64 79 131 130 157 20 10 37 31 47 56 9 22 26 48 37 59
14 13 24 41 31 88 13 85 55 171 119 245 27 31 57 73 66 93 10 20 21 36 25 36
4 0 18 17 30 38 13 20 45 65 72 99 64 79 167 134 267 141 37 2 72 11 82 19 9
8 38 21 64 29 26 8 71 28 101 44 29 17 59 30 68 30 14 0 157 71 179 89 6 5 38
24 71 41 33 18 69 41 81 51 11 11 25 19 30 19 6 0 31 13 56 29 55 35 93 32
101 -6 4 -20 -6 -40 -43 -85 -33 -41 -49 -71 -53 -99 -7 -53 -73 -151 -117
-175 -38 -20 -76 -87 -105 -180 -10 -34 -24 -55 -40 -64 -14 -7 -25 -18 -25
-23 0 -5 -44 -54 -97 -108 -117 -118 -125 -127 -158 -176 -68 -103 -179 -240
-249 -308 -65 -65 -89 -93 -110 -130 -9 -16 -31 -49 -49 -71 -17 -23 -45 -60
-62 -82 -16 -22 -43 -48 -58 -57 -15 -9 -37 -26 -48 -38 -11 -12 -39 -31 -62
-42 -54 -26 -69 -55 -64 -129 5 -81 24 -96 124 -96 70 0 78 2 116 33 71 57
196 186 223 229 15 23 56 75 91 115 35 41 71 86 81 101 34 55 89 119 202 234
63 64 137 142 164 173 27 30 55 55 61 55 7 0 35 21 62 48 110 106 177 156 246
184 43 17 89 46 117 72 65 61 104 79 180 82 36 2 88 10 115 18 28 9 78 16 112
16 61 0 63 -1 88 -37 29 -43 32 -85 10 -136 -8 -20 -15 -55 -15 -77 0 -44 -16
-85 -55 -140 -13 -19 -35 -50 -47 -68 -13 -19 -35 -49 -50 -67 -16 -18 -28
-42 -28 -54 0 -29 -25 -86 -48 -111 -15 -16 -20 -42 -26 -120 -7 -116 -25
-163 -71 -185 -18 -8 -49 -34 -68 -57 -20 -24 -47 -54 -60 -68 -25 -26 -46
-91 -54 -172 -5 -46 -3 -49 47 -99 l51 -51 107 5 c261 13 420 59 469 137 27
42 31 46 77 85 20 17 46 39 59 50 12 11 39 33 60 48 30 23 37 34 37 63 0 41
-24 54 -100 54 -39 0 -52 -4 -60 -20 -14 -26 -110 -89 -146 -94 -16 -3 -82 -8
-146 -11 -114 -5 -118 -4 -132 17 -22 36 -5 144 27 174 14 13 33 36 42 52 10
16 36 37 59 48 44 20 77 68 96 136 6 20 21 50 34 65 13 16 29 47 35 69 6 23
20 49 32 60 29 26 64 89 85 149 9 28 27 63 40 78 16 19 24 41 24 65 0 51 18
112 36 119 8 3 14 19 14 39 0 19 7 51 15 71 19 45 19 83 -1 132 -15 38 -34 51
-80 51 -11 0 -41 14 -67 31 l-46 31 -193 -4 c-182 -3 -195 -4 -225 -26 -17
-12 -45 -25 -63 -28 -22 -5 -44 -23 -76 -64 l-45 -58 -70 -7 c-62 -6 -72 -5
-85 11 -17 24 -10 58 22 105 13 19 24 40 24 46 0 5 14 29 30 51 17 23 30 46
30 50 0 5 14 21 30 37 17 16 30 34 30 39 0 11 41 72 135 201 73 100 103 133
162 177 43 31 53 44 53 68 0 18 11 42 28 62 16 18 36 53 46 78 33 83 66 147
86 165 16 14 20 31 20 81 0 54 -3 65 -22 79 -102 71 -138 80 -187 46 -14 -10
-45 -24 -68 -30 -31 -8 -85 -47 -192 -136 -83 -69 -163 -142 -178 -163 -15
-20 -34 -43 -41 -51 -7 -7 -24 -34 -37 -60 -13 -27 -40 -58 -62 -73 -21 -14
-59 -46 -86 -72 -26 -25 -53 -46 -61 -46 -7 0 -20 -7 -27 -17 -8 -9 -36 -27
-64 -40 -90 -44 -138 -72 -164 -97 -18 -16 -43 -25 -78 -29 -29 -3 -72 -17
-95 -30 -24 -14 -63 -28 -88 -31 -25 -4 -66 -18 -92 -31 -102 -53 -163 -41
-244 48 -45 50 -60 74 -119 185 -26 48 -39 61 -85 84 -30 15 -68 27 -85 28
-40 0 -110 -22 -175 -55 -37 -19 -80 -30 -144 -37 -95 -10 -116 -15 -206 -46
-34 -12 -99 -22 -169 -26 -81 -5 -128 -12 -160 -27 -65 -29 -119 -39 -257 -49
-82 -6 -133 -14 -155 -26 -45 -23 -153 -43 -173 -32 -24 13 -20 74 5 99 11 11
28 37 36 57 8 21 28 51 43 69 16 18 48 64 72 103 53 87 81 131 134 206 22 33
60 95 84 139 24 44 68 116 98 160 l54 80 -5 67 c-5 72 -26 119 -67 149 -19 14
-51 19 -126 23 l-101 6 -92 -45z m-107 -584 c-3 -20 -12 -41 -20 -47 -8 -6
-14 -18 -14 -26 0 -9 -12 -24 -27 -33 -16 -10 -38 -29 -50 -44 -30 -36 -44
-18 -45 52 -1 53 2 58 44 101 69 68 124 67 112 -3z m1172 -698 c55 -63 102
-110 138 -137 48 -36 86 -114 86 -177 0 -40 -6 -54 -40 -95 -35 -43 -70 -125
-70 -167 0 -8 -29 -42 -65 -76 -36 -33 -65 -67 -65 -73 0 -7 -16 -32 -35 -56
-18 -24 -39 -59 -45 -78 -6 -19 -15 -34 -19 -34 -5 0 -11 -31 -15 -69 -6 -56
-13 -77 -37 -107 -16 -20 -29 -40 -29 -44 0 -4 -13 -24 -29 -44 -16 -20 -32
-52 -35 -71 -8 -41 -67 -85 -114 -85 -19 0 -38 -11 -58 -31 -16 -17 -49 -42
-74 -55 -25 -14 -67 -41 -95 -60 -48 -34 -52 -35 -130 -31 -44 1 -100 8 -125
15 -25 7 -85 17 -133 23 -85 11 -89 13 -102 42 -21 49 -3 88 107 230 29 38 60
90 69 116 9 27 33 70 53 97 19 27 55 78 79 114 46 68 62 93 102 150 13 19 35
50 47 68 13 18 35 48 49 67 15 19 30 50 33 68 4 21 24 51 56 82 27 28 56 68
65 90 9 25 29 49 51 63 19 13 49 42 66 66 18 26 47 51 70 62 22 10 50 32 62
50 28 42 116 113 139 114 10 0 29 -12 43 -27z"/>
<path d="M12105 5959 c-38 -23 -147 -147 -197 -225 -15 -23 -50 -59 -79 -80
-67 -50 -137 -121 -156 -159 -9 -16 -42 -58 -74 -92 -36 -37 -59 -70 -59 -83
0 -22 -48 -137 -96 -233 -20 -39 -25 -66 -29 -160 -8 -206 -8 -207 86 -297 66
-64 65 -60 49 -205 -6 -53 -21 -113 -35 -145 -13 -30 -26 -67 -29 -81 -3 -14
-29 -61 -57 -105 -50 -75 -52 -83 -54 -149 -2 -84 -13 -109 -64 -135 -48 -24
-203 -179 -242 -241 -16 -25 -40 -51 -53 -57 -65 -29 -147 -23 -197 16 -20 16
-45 19 -152 21 -70 1 -139 6 -153 11 -42 16 -80 11 -170 -22 -60 -23 -92 -41
-102 -58 -9 -14 -31 -42 -50 -64 -33 -37 -34 -41 -30 -110 3 -65 7 -77 49
-141 25 -38 57 -90 70 -113 13 -24 35 -50 49 -57 14 -7 44 -22 66 -34 63 -32
94 -27 217 34 68 34 123 55 144 55 20 0 50 11 71 25 20 14 42 25 48 25 6 0 28
14 50 30 21 17 53 38 72 47 18 9 41 27 50 41 9 14 40 50 68 81 28 31 71 88 94
126 24 39 65 93 91 120 26 28 79 90 118 139 53 67 71 97 71 120 0 41 32 92 73
116 34 20 97 91 97 108 0 5 10 22 23 37 27 34 69 104 97 162 12 24 39 70 60
102 45 67 55 89 69 146 7 25 30 62 61 97 36 41 50 64 50 86 0 18 10 39 24 53
14 14 29 46 35 74 21 103 37 144 79 199 30 40 42 67 42 90 0 18 10 48 23 67
13 19 28 59 35 90 7 30 24 72 37 92 14 20 25 40 25 45 0 12 58 101 86 132 21
23 33 50 84 184 11 27 26 56 33 65 8 9 17 28 21 44 9 37 -43 103 -88 112 -17
4 -51 19 -76 33 -39 23 -58 27 -150 29 -69 2 -112 -1 -125 -8z m-80 -579 c10
-47 -69 -180 -108 -180 -45 0 -52 14 -30 62 12 23 33 54 47 67 14 14 26 29 26
36 0 20 31 54 45 49 7 -3 17 -18 20 -34z"/>
<path d="M18140 5233 c-13 -3 -45 -13 -71 -23 -25 -10 -75 -24 -110 -30 -78
-14 -177 -65 -254 -130 -33 -28 -66 -50 -73 -50 -34 0 -207 -116 -289 -193
-18 -16 -40 -52 -50 -80 -14 -38 -34 -63 -86 -110 -100 -88 -129 -149 -136
-290 -6 -106 -7 -109 -37 -137 -18 -15 -38 -32 -46 -36 -16 -10 -82 -101 -90
-125 -3 -8 -36 -61 -72 -117 -62 -96 -69 -103 -132 -134 -48 -23 -74 -44 -95
-75 -17 -24 -43 -50 -59 -58 -16 -9 -44 -29 -61 -46 -28 -27 -37 -30 -69 -25
-29 4 -50 -1 -96 -23 -32 -16 -78 -34 -101 -40 -23 -7 -45 -16 -49 -22 -14
-23 -68 -32 -245 -39 -159 -7 -191 -11 -227 -29 -50 -25 -96 -26 -208 -4 -57
11 -92 24 -109 39 -23 21 -23 23 -9 70 8 26 14 62 14 81 0 45 21 92 67 150 21
27 56 91 78 142 28 67 54 111 94 156 31 35 74 93 96 129 22 37 50 79 61 94 12
15 26 43 32 62 5 19 19 59 31 89 30 75 52 193 42 228 -22 78 -92 173 -127 173
-10 0 -36 12 -58 28 -39 27 -40 27 -211 27 -169 0 -172 0 -212 -27 -22 -14
-58 -31 -79 -37 -44 -12 -152 -99 -173 -140 -25 -49 -71 -88 -110 -95 -42 -6
-121 -59 -121 -80 0 -8 -48 -63 -107 -122 -175 -178 -190 -196 -197 -248 -7
-42 -17 -56 -120 -160 -96 -97 -119 -126 -151 -194 -21 -44 -47 -89 -59 -99
-11 -11 -37 -40 -56 -67 -89 -121 -118 -148 -185 -177 -81 -34 -214 -52 -271
-38 -22 6 -55 24 -72 40 -34 32 -35 45 -5 116 7 18 13 61 13 95 0 43 6 74 19
98 11 19 31 58 45 85 24 45 45 80 114 187 13 20 29 39 37 42 8 3 21 28 29 57
9 29 22 62 30 74 8 12 20 42 26 66 6 24 22 60 36 79 19 29 24 49 25 113 2 85
-6 102 -58 123 -24 11 -44 11 -89 3 -55 -10 -59 -9 -76 11 -13 17 -18 40 -18
92 0 62 -4 77 -36 134 -22 39 -47 70 -65 79 -16 9 -45 27 -66 41 l-38 26 -154
-6 c-126 -5 -169 -11 -243 -33 -84 -25 -93 -30 -129 -76 -22 -27 -39 -60 -39
-73 0 -13 -9 -32 -20 -41 -46 -40 -92 -89 -105 -113 -17 -32 -113 -123 -187
-177 -32 -24 -58 -47 -58 -53 0 -5 -14 -22 -30 -37 -17 -15 -49 -59 -71 -98
-70 -123 -79 -136 -108 -160 -15 -13 -56 -80 -91 -150 -44 -87 -75 -137 -105
-164 -23 -21 -46 -40 -51 -42 -5 -2 -22 -19 -39 -37 -24 -27 -30 -44 -36 -102
-4 -53 -13 -79 -37 -117 -18 -27 -35 -63 -38 -80 -11 -55 21 -125 89 -197 l62
-66 130 5 c110 5 134 8 155 25 14 12 41 28 60 36 19 9 45 25 58 35 13 10 40
21 61 25 20 4 51 20 69 35 18 16 39 29 46 29 8 0 32 15 55 33 22 17 59 46 81
62 22 17 51 50 66 74 37 61 60 81 92 81 15 0 43 11 61 24 18 13 47 27 66 30
25 5 42 19 69 56 19 27 50 57 68 66 18 9 39 25 46 35 19 27 92 27 92 0 0 -29
-41 -124 -66 -151 -12 -14 -26 -42 -29 -63 -4 -21 -18 -51 -31 -67 -15 -17
-24 -41 -24 -61 0 -19 -11 -49 -26 -71 -22 -31 -26 -46 -22 -82 3 -25 15 -56
26 -71 11 -14 23 -43 27 -65 11 -65 14 -65 249 -62 209 2 211 3 251 29 25 17
58 28 90 31 29 3 58 12 70 23 11 10 50 26 85 35 36 9 76 25 88 35 13 10 39 21
57 25 22 4 43 19 63 42 16 21 66 78 112 127 108 118 113 127 121 202 4 43 14
75 32 101 14 20 28 51 32 69 3 18 20 49 36 69 16 20 29 43 29 51 0 15 85 97
129 124 30 18 93 123 105 174 11 44 85 154 116 170 40 21 90 75 110 120 27 63
32 65 151 54 69 -6 121 -6 150 0 36 8 51 7 86 -9 54 -24 63 -54 37 -124 -12
-33 -17 -72 -15 -112 2 -67 -27 -150 -74 -206 -14 -16 -25 -34 -25 -40 0 -26
-67 -158 -111 -218 -26 -36 -54 -83 -62 -105 -54 -143 -70 -181 -88 -206 -11
-15 -28 -62 -39 -104 l-20 -77 23 -75 c19 -67 26 -79 62 -101 47 -30 124 -52
185 -52 25 0 80 -7 123 -14 60 -11 105 -12 195 -4 126 10 211 33 368 99 50 22
98 39 106 39 9 0 27 9 42 21 14 11 43 25 64 31 34 9 178 69 282 117 60 28 116
28 130 0 9 -16 6 -43 -15 -127 -31 -121 -36 -132 -81 -187 -18 -22 -48 -71
-68 -109 -20 -39 -54 -93 -75 -120 -55 -74 -82 -121 -164 -283 -15 -28 -31
-54 -36 -58 -6 -3 -18 -32 -27 -63 -20 -68 -55 -132 -104 -189 -20 -22 -47
-63 -60 -89 -14 -26 -37 -63 -52 -82 -16 -19 -28 -38 -28 -41 0 -4 -26 -34
-57 -66 -51 -54 -59 -69 -81 -145 -26 -95 -74 -224 -103 -285 -37 -75 -80
-145 -89 -145 -19 0 -42 -63 -36 -98 7 -45 -14 -94 -54 -124 -39 -28 -110
-167 -145 -283 -14 -45 -39 -103 -56 -130 -17 -27 -36 -75 -43 -107 -10 -49
-19 -65 -57 -101 -59 -55 -79 -85 -123 -186 -37 -85 -73 -262 -61 -301 15 -47
112 -100 184 -100 90 0 271 199 271 299 0 14 6 46 14 71 18 59 111 215 139
235 26 18 90 105 113 155 17 36 59 165 101 309 13 46 35 105 47 130 13 25 26
72 30 104 3 32 16 77 27 99 11 22 26 69 34 104 21 100 53 186 90 245 31 46 95
217 95 250 0 7 21 43 46 81 32 49 48 86 56 128 9 53 16 64 79 129 49 52 71 83
79 114 27 101 37 126 84 202 27 44 62 103 78 130 16 28 33 57 38 65 25 39 71
154 80 199 12 63 27 93 79 156 23 28 55 83 72 124 17 41 53 102 79 136 27 34
64 93 83 131 22 44 51 82 79 105 78 64 232 166 263 173 17 4 57 20 90 36 73
35 98 71 89 128 -4 25 -2 42 5 46 6 4 55 12 109 17 149 15 141 10 282 204 43
59 120 133 160 155 35 19 50 130 17 130 -6 0 -37 -7 -70 -17 -51 -14 -64 -23
-104 -72 -25 -31 -47 -61 -50 -67 -2 -6 -26 -23 -53 -38 -27 -15 -51 -30 -54
-35 -3 -4 -39 -25 -81 -46 -42 -22 -98 -59 -123 -82 -43 -39 -46 -45 -43 -88
2 -40 -1 -46 -24 -55 -15 -6 -46 -10 -70 -10 -39 0 -151 -45 -206 -82 -27 -19
-45 -2 -58 55 -17 69 -8 125 22 136 51 20 130 95 152 146 13 28 30 57 39 64 9
8 25 33 35 56 46 103 129 190 252 265 22 14 60 52 83 85 35 51 48 61 86 71
112 29 162 36 223 32 54 -3 69 -8 86 -28 31 -38 26 -48 -26 -56 -51 -7 -123
-32 -123 -42 0 -3 13 -20 29 -37 15 -16 36 -50 45 -75 10 -25 23 -48 29 -52
19 -12 122 -9 154 5 55 23 113 80 149 146 20 36 45 77 55 91 100 129 93 170
-45 272 -113 85 -145 96 -226 81z m-4856 -602 c19 -21 24 -80 12 -154 -6 -40
-18 -59 -68 -112 -35 -37 -82 -76 -112 -91 -28 -14 -72 -47 -98 -74 l-46 -49
13 -38 c19 -55 42 -64 166 -60 98 2 108 1 119 -17 10 -16 10 -21 0 -24 -26 -9
-161 -162 -181 -204 -7 -17 -23 -29 -41 -33 -20 -5 -37 -20 -55 -48 -14 -23
-41 -58 -60 -78 -34 -36 -37 -37 -92 -32 -51 5 -66 1 -127 -27 -37 -18 -75
-42 -84 -52 -9 -11 -36 -24 -62 -28 -25 -5 -62 -20 -83 -34 -40 -27 -86 -33
-129 -16 -14 5 -26 15 -26 21 0 7 -11 36 -25 66 l-26 53 45 73 c25 39 52 86
60 103 18 41 71 109 128 164 25 25 53 59 62 77 9 17 24 34 33 37 19 7 76 85
91 126 6 15 29 35 57 50 34 17 52 34 59 55 18 51 58 98 248 292 10 10 30 30
45 46 23 24 33 27 93 27 53 0 70 -4 84 -19z"/>
<path d="M6985 5114 c-74 -42 -175 -127 -175 -147 0 -21 -33 -77 -49 -82 -10
-3 -39 -25 -65 -50 -25 -25 -53 -45 -61 -45 -9 0 -21 -12 -27 -27 -7 -16 -24
-41 -39 -56 -15 -16 -29 -41 -33 -55 -6 -32 -129 -161 -208 -219 -64 -48 -106
-105 -133 -181 -11 -30 -27 -54 -37 -58 -10 -3 -18 -9 -18 -13 0 -4 -13 -27
-29 -52 -16 -24 -33 -57 -37 -74 -4 -16 -19 -44 -33 -61 -56 -66 -70 -88 -77
-118 -7 -33 -79 -123 -106 -131 -16 -6 -38 -53 -38 -81 0 -14 49 -43 65 -39 6
2 22 6 37 9 20 5 32 18 46 49 11 23 38 60 61 82 23 22 51 57 61 78 11 20 24
37 28 37 5 0 18 21 30 46 18 36 32 49 62 61 22 9 40 19 40 24 0 4 16 26 35 49
19 23 35 48 35 56 0 8 26 41 59 74 42 43 62 72 69 103 12 48 139 197 256 302
37 33 79 72 93 88 20 20 36 27 63 27 22 0 48 8 63 20 14 11 40 20 59 20 33 0
35 -2 55 -67 28 -89 30 -112 11 -148 -9 -17 -19 -72 -23 -127 -4 -54 -10 -98
-15 -98 -4 0 -15 -21 -25 -46 -9 -25 -32 -61 -50 -81 -41 -44 -70 -102 -86
-168 -6 -27 -15 -58 -20 -67 -5 -10 -9 -23 -9 -30 0 -25 -51 -84 -83 -96 -22
-8 -39 -24 -49 -46 -18 -38 -60 -87 -128 -149 -67 -63 -121 -121 -160 -172
-19 -25 -42 -53 -51 -63 -9 -9 -25 -33 -36 -52 -10 -19 -27 -47 -37 -62 -13
-21 -16 -37 -11 -67 6 -34 12 -41 47 -56 75 -30 115 -15 204 75 42 43 93 86
113 95 56 25 121 130 121 194 0 16 9 40 20 54 12 15 27 48 35 74 15 52 93 137
151 167 17 8 34 22 37 29 3 8 29 20 59 27 68 16 78 22 137 75 28 24 60 46 73
50 13 4 59 31 103 61 53 35 95 55 125 60 25 4 64 18 87 31 37 21 63 26 190 35
l147 10 18 -24 c37 -48 14 -110 -71 -188 -15 -14 -36 -48 -45 -75 -10 -28 -24
-62 -32 -77 -8 -14 -14 -33 -14 -41 0 -8 -14 -41 -31 -73 -21 -40 -32 -78 -36
-124 -5 -57 -11 -72 -51 -125 -24 -33 -48 -71 -53 -85 -5 -14 -21 -46 -34 -71
-31 -58 -31 -94 -2 -149 29 -55 125 -110 193 -110 50 0 130 36 179 80 18 17
46 30 70 33 52 7 163 74 187 112 26 43 23 81 -8 110 -39 36 -83 41 -156 16
-71 -24 -98 -26 -145 -9 -59 21 -71 116 -17 127 28 5 66 38 97 83 22 34 27 52
27 105 0 75 14 113 67 181 66 86 145 217 169 282 9 25 28 71 42 102 l24 57
-26 45 c-42 71 -60 80 -199 101 -69 9 -138 15 -153 12 -68 -13 -121 -32 -151
-54 -23 -18 -52 -27 -105 -33 -40 -4 -106 -17 -146 -29 -102 -30 -116 -21
-109 62 3 34 13 94 22 132 18 80 30 152 45 277 9 74 8 93 -5 117 -29 57 -156
158 -235 187 -19 7 -64 13 -100 13 -58 0 -73 -5 -145 -45z"/>
<path d="M8362 3540 c-46 -25 -69 -48 -87 -83 -21 -43 -19 -62 10 -75 35 -16
45 -15 100 9 78 35 94 114 30 155 -17 10 -26 9 -53 -6z"/>
<path d="M4263 3457 c-23 -23 -54 -54 -67 -69 l-25 -28 22 -33 c28 -42 116
-97 154 -97 17 0 38 9 48 20 10 11 26 22 36 25 10 3 28 22 40 41 18 29 21 45
16 86 -4 28 -13 61 -22 74 -14 22 -23 24 -88 24 -71 0 -72 -1 -114 -43z"/>
</g>
</svg>
