<?xml version="1.0" standalone="no"?>
<!DOCTYPE svg PUBLIC "-//W3C//DTD SVG 20010904//EN"
 "http://www.w3.org/TR/2001/REC-SVG-20010904/DTD/svg10.dtd">
<svg version="1.0" xmlns="http://www.w3.org/2000/svg"
 width="1635.000000pt" height="150.000000pt" viewBox="0 0 1635.000000 150.000000"
 preserveAspectRatio="xMidYMid meet">
<metadata>
Created by potrace 1.16, written by Peter Selinger 2001-2019
</metadata>
<g transform="translate(0.000000,150.000000) scale(0.100000,-0.100000)"
fill="#ffffff" stroke="none">
<path d="M4653 1323 c-36 -5 -114 -69 -136 -111 -98 -190 -115 -236 -141 -377
-6 -33 -14 -65 -18 -71 -5 -7 -11 -44 -14 -83 -7 -82 6 -93 50 -40 21 24 24
34 15 45 -14 17 3 155 30 241 10 32 26 92 36 133 22 91 33 114 79 164 27 29
39 36 49 28 18 -15 75 6 108 40 38 38 30 42 -58 31z"/>
<path d="M2526 1301 c-3 -4 -30 -21 -60 -36 -74 -37 -123 -79 -146 -126 -11
-21 -25 -39 -30 -39 -6 0 -10 -9 -10 -21 0 -11 -8 -33 -19 -47 -10 -15 -32
-55 -49 -88 -28 -56 -35 -62 -75 -72 -78 -20 -124 -54 -172 -127 -25 -37 -47
-82 -51 -101 -5 -30 -3 -34 20 -40 31 -7 77 9 102 37 16 18 16 19 -2 20 -59 3
-59 3 -56 32 3 29 56 97 75 97 6 0 18 6 26 14 19 15 81 38 81 29 0 -4 -9 -25
-19 -47 -44 -94 -59 -133 -66 -174 -4 -23 -4 -42 0 -42 3 0 24 9 45 20 27 14
40 27 40 41 0 11 -4 18 -9 14 -24 -14 -20 24 9 101 20 51 39 86 50 89 12 4 19
21 24 55 6 46 31 114 56 150 5 8 18 35 29 60 17 42 23 47 91 75 105 43 197
135 135 135 -8 0 -16 -4 -19 -9z"/>
<path d="M4937 1294 c-15 -8 -43 -16 -61 -18 -40 -4 -90 -33 -131 -77 l-30
-32 49 28 c40 23 52 26 67 17 16 -10 19 -9 19 4 0 8 4 13 10 9 5 -3 17 -1 27
4 10 5 30 12 45 15 15 4 36 20 48 36 20 28 20 30 3 30 -10 -1 -31 -8 -46 -16z"/>
<path d="M12499 1263 c-19 -15 -38 -34 -42 -41 -5 -7 -24 -27 -43 -44 -40 -37
-139 -188 -179 -274 -20 -42 -38 -67 -59 -78 -34 -18 -90 -69 -147 -133 -37
-42 -68 -128 -51 -145 11 -11 104 24 110 42 3 9 -3 11 -22 8 -37 -7 -51 13
-37 53 11 31 54 79 71 79 5 0 22 11 38 25 l30 25 -2 -37 c-1 -21 -5 -45 -9
-53 -11 -27 -12 -110 -2 -114 5 -2 28 6 49 17 35 17 38 21 24 31 -13 9 -15 23
-12 57 7 63 25 117 40 123 11 4 11 11 3 29 -9 19 -7 31 5 55 9 17 16 36 16 43
0 52 153 249 193 249 18 0 89 79 84 94 -7 20 -25 16 -58 -11z"/>
<path d="M4230 1229 c-40 -24 -80 -59 -80 -70 0 -8 57 17 80 36 8 7 27 15 41
19 15 3 29 13 33 21 8 22 -32 19 -74 -6z"/>
<path d="M14325 1178 c-69 -67 -91 -104 -27 -46 20 18 52 40 70 47 28 12 35
12 51 -3 24 -22 63 -20 95 5 37 29 32 39 -19 39 -25 0 -45 5 -45 10 0 6 -14
10 -30 10 -24 0 -45 -14 -95 -62z"/>
<path d="M2788 1173 c-10 -2 -18 -8 -18 -13 0 -5 -9 -11 -20 -15 -24 -8 -165
-146 -203 -200 -15 -21 -30 -49 -33 -62 -4 -13 -10 -23 -16 -23 -5 0 -16 -17
-25 -37 -8 -21 -24 -51 -35 -66 -13 -19 -18 -36 -14 -53 4 -14 0 -37 -9 -54
-8 -16 -15 -40 -15 -53 0 -13 -7 -32 -15 -43 -8 -10 -15 -26 -15 -35 0 -9 -9
-26 -20 -39 -11 -13 -20 -29 -20 -36 0 -18 -44 -50 -96 -70 -40 -15 -46 -15
-62 -1 -13 12 -20 13 -33 4 -25 -19 -41 -56 -34 -78 6 -18 12 -20 39 -15 39 8
134 54 163 79 36 32 153 281 153 326 0 26 43 69 77 76 15 4 44 15 63 25 61 31
80 34 80 11 0 -11 -5 -23 -11 -27 -18 -11 -47 -85 -54 -141 -6 -45 -4 -54 10
-60 11 -4 21 0 27 10 5 10 15 17 22 17 13 0 56 41 56 53 0 4 -14 4 -31 0 l-31
-6 5 39 c10 70 19 98 43 131 32 43 31 63 -4 63 -15 0 -33 -5 -40 -12 -7 -7
-22 -13 -35 -14 -12 -1 -44 -9 -70 -17 l-48 -15 6 31 c4 18 13 39 20 47 7 8
21 32 30 54 20 43 81 106 102 106 7 0 13 4 13 9 0 15 89 61 106 54 15 -6 43
22 44 45 0 12 -19 14 -52 5z"/>
<path d="M15064 1163 c-27 -5 -225 -206 -249 -253 -10 -19 -35 -60 -57 -92
-37 -54 -78 -146 -78 -175 0 -29 21 -9 72 67 29 44 57 80 61 80 19 0 17 -34
-7 -86 -14 -31 -26 -63 -26 -71 0 -8 -23 -37 -50 -64 -48 -48 -59 -80 -21 -60
40 22 97 100 142 198 53 113 56 125 35 142 -11 10 -21 9 -44 -3 -17 -9 -33
-21 -36 -28 -10 -21 2 24 16 62 18 48 61 105 131 171 54 51 106 79 150 79 12
0 27 19 27 36 0 5 -35 3 -66 -3z"/>
<path d="M4703 1153 c-7 -2 -13 -13 -13 -24 0 -10 -4 -19 -9 -19 -4 0 -16 -20
-25 -44 -9 -25 -24 -50 -32 -56 -7 -7 -14 -19 -14 -26 0 -8 -11 -31 -25 -52
-23 -34 -76 -167 -73 -181 4 -15 -14 -71 -23 -71 -16 0 -10 -46 9 -63 25 -22
48 -21 83 4 28 20 32 43 6 33 -7 -2 -22 4 -32 16 -15 16 -16 24 -7 43 6 12 21
62 32 112 13 55 41 131 72 195 29 58 52 107 53 110 0 3 4 11 8 18 9 13 8 13
-10 5z"/>
<path d="M4091 1077 c-16 -20 -43 -88 -37 -94 3 -3 10 7 17 23 6 16 18 41 26
57 15 29 13 36 -6 14z"/>
<path d="M10290 1073 c-14 -3 -34 -13 -45 -23 -11 -9 -42 -30 -70 -45 -64 -34
-75 -45 -47 -45 27 0 28 -21 2 -45 -11 -10 -20 -23 -20 -29 0 -6 -7 -24 -15
-40 -14 -26 -14 -27 1 -15 8 7 24 29 34 49 25 49 87 103 141 124 28 11 50 28
61 46 19 33 18 34 -42 23z"/>
<path d="M13127 1059 c-21 -11 -41 -27 -44 -34 -3 -8 -9 -15 -14 -15 -20 0
-94 -63 -113 -95 -12 -19 -44 -68 -71 -107 -28 -40 -56 -85 -63 -100 -6 -16
-15 -28 -19 -28 -5 -1 -18 -9 -31 -20 -23 -19 -23 -21 5 -69 2 -2 11 4 22 13
12 11 40 18 79 21 76 4 95 -12 91 -76 -4 -50 13 -62 42 -30 17 18 19 30 14 98
-11 143 28 296 90 358 41 40 69 85 58 95 -4 5 -25 0 -46 -11z m-77 -113 c0 -7
-7 -19 -14 -26 -14 -11 -38 -69 -41 -100 -3 -25 -16 -83 -26 -117 -10 -32 -12
-33 -52 -27 -69 11 -70 13 -40 74 15 30 29 57 33 60 3 3 32 38 64 78 57 71 76
85 76 58z"/>
<path d="M3612 1005 c-24 -27 -28 -50 -12 -60 13 -8 60 45 57 64 -4 24 -22 23
-45 -4z"/>
<path d="M700 999 c-50 -26 -71 -32 -102 -30 -22 2 -29 -3 -34 -23 -3 -14 -10
-26 -14 -26 -4 0 -21 -13 -37 -29 -17 -16 -40 -32 -51 -35 -13 -5 -19 -13 -15
-22 3 -8 0 -21 -7 -29 -26 -31 -1 -25 59 15 62 41 81 44 81 10 0 -10 5 -20 12
-22 10 -4 10 -13 0 -45 -7 -22 -12 -50 -12 -62 0 -11 -5 -21 -11 -21 -6 0 -9
-9 -6 -20 3 -11 0 -31 -6 -45 -11 -22 -17 -24 -66 -22 -36 1 -56 -2 -58 -10
-3 -8 5 -13 21 -13 34 0 69 -17 85 -42 10 -17 10 -22 -6 -34 -10 -7 -13 -14
-7 -14 15 0 25 -38 13 -46 -5 -3 -9 -15 -9 -28 0 -12 -3 -26 -6 -29 -4 -4 -8
-39 -11 -79 -2 -40 -8 -77 -14 -83 -5 -5 -33 -11 -62 -12 -60 -3 -106 -8 -127
-16 -48 -17 -73 -17 -85 -1 -7 10 -19 15 -29 11 -22 -9 -20 -24 5 -30 12 -3
18 -10 14 -16 -8 -13 7 -15 21 -2 14 13 94 23 94 11 0 -5 12 -10 28 -10 15 0
37 -7 48 -15 17 -12 33 -12 90 -4 76 12 104 30 104 66 0 20 -5 24 -22 21 -27
-3 -31 4 -24 40 3 15 8 43 11 62 12 85 29 160 36 160 4 0 6 14 5 31 -1 29 2
32 59 50 33 10 66 17 73 14 7 -3 10 0 7 5 -3 6 3 10 14 10 12 0 21 6 21 14 0
8 13 43 30 78 16 34 30 69 30 76 0 8 7 30 16 49 15 30 15 40 4 76 -8 23 -13
49 -12 57 2 16 -72 73 -98 76 -8 1 -31 -7 -50 -17z m62 -105 c27 -6 37 -22 43
-67 1 -12 6 -29 10 -38 3 -10 2 -20 -4 -24 -6 -3 -11 -16 -11 -28 0 -38 -116
-127 -164 -127 -32 0 -38 20 -21 77 7 26 16 67 20 91 4 24 13 46 20 48 6 3 10
15 8 28 -6 30 23 60 51 52 12 -4 33 -9 48 -12z"/>
<path d="M7772 1000 c-26 -24 -28 -48 -7 -57 19 -7 44 23 45 55 0 27 -10 28
-38 2z"/>
<path d="M2412 980 c-23 -31 -28 -50 -13 -50 13 0 51 50 51 66 0 22 -15 16
-38 -16z"/>
<path d="M9408 978 c-22 -34 -23 -54 -3 -62 19 -7 27 12 23 55 l-3 33 -17 -26z"/>
<path d="M14471 981 c-27 -27 -27 -50 2 -60 17 -7 26 -4 39 12 38 46 0 89 -41
48z"/>
<path d="M14173 983 c-7 -3 -13 -13 -13 -24 0 -10 -3 -19 -7 -19 -10 0 -33
-49 -33 -68 0 -19 31 22 54 71 19 41 19 47 -1 40z"/>
<path d="M12495 922 c-17 -9 -31 -17 -32 -17 -1 -1 0 -11 4 -23 8 -30 29 -24
54 15 24 38 14 47 -26 25z"/>
<path d="M4023 907 c-7 -15 -32 -32 -73 -48 -97 -37 -173 -134 -174 -221 -1
-58 20 -69 79 -40 25 12 48 29 52 38 8 20 -17 36 -34 22 -21 -17 -43 -1 -43
30 0 60 91 138 128 109 14 -11 16 -73 2 -82 -5 -3 -10 -23 -10 -43 0 -30 6
-42 36 -65 33 -27 36 -28 48 -11 11 15 10 24 -10 62 -13 24 -21 49 -18 54 13
21 34 132 32 174 0 24 -2 44 -3 44 -1 0 -7 -10 -12 -23z"/>
<path d="M1277 892 c-15 -15 -30 -42 -33 -60 -4 -18 -10 -32 -15 -32 -4 0 -9
-12 -11 -27 -2 -14 -9 -28 -16 -31 -9 -3 -10 3 -2 23 14 36 13 88 -2 103 -7 7
-23 12 -37 11 -15 0 -20 -3 -13 -6 16 -6 15 -30 -2 -40 -20 -12 -25 -35 -12
-58 6 -11 11 -54 11 -95 0 -68 2 -75 19 -75 15 0 33 27 75 109 31 60 61 119
68 130 6 12 14 33 17 49 6 35 -12 35 -47 -1z"/>
<path d="M4268 882 c-12 -20 -14 -32 -6 -46 8 -14 4 -23 -23 -46 l-33 -27 39
1 c33 1 43 7 62 35 25 37 30 80 11 99 -19 19 -32 14 -50 -16z"/>
<path d="M1432 888 c-7 -7 -12 -16 -12 -21 0 -5 -8 -21 -19 -35 -24 -36 -61
-153 -61 -196 0 -45 14 -82 34 -89 11 -5 22 5 36 32 17 34 17 40 4 45 -12 5
-14 18 -11 61 5 62 26 87 87 105 60 17 73 14 65 -17 -3 -16 -17 -39 -29 -53
-44 -48 -27 -170 23 -170 17 0 81 55 81 71 0 3 -11 4 -24 2 -46 -9 -63 44 -33
106 10 21 16 23 57 18 26 -3 51 -2 57 1 22 14 63 83 63 107 0 23 -3 24 -52 21
-47 -3 -116 -13 -226 -32 -33 -5 -34 -5 -27 25 7 34 5 37 -13 19z m238 -58
c25 -13 15 -40 -15 -40 -30 0 -41 16 -25 35 15 18 16 18 40 5z"/>
<path d="M5311 855 c-37 -42 -37 -45 -9 -37 19 4 20 2 14 -19 -4 -13 -10 -34
-13 -46 -3 -13 -9 -23 -13 -23 -4 0 -11 -15 -14 -32 -4 -18 -20 -51 -36 -73
-38 -52 -67 -108 -76 -148 -10 -48 -41 -116 -82 -179 -39 -60 -58 -76 -76 -58
-24 24 -39 11 -33 -31 3 -22 8 -43 11 -47 9 -8 57 20 64 37 3 8 21 37 39 65
19 28 36 62 40 76 3 14 23 50 45 81 21 31 43 72 48 91 7 25 19 39 45 51 20 9
41 17 48 17 26 0 86 51 111 95 35 64 41 105 22 144 -19 36 -23 37 -53 12 -27
-22 -29 -41 -8 -81 23 -45 -2 -90 -64 -116 -18 -8 -35 -14 -37 -14 -10 0 -1
28 27 84 27 53 59 148 59 176 0 21 -30 8 -59 -25z"/>
<path d="M6482 844 c-38 -38 -44 -49 -29 -52 23 -5 22 -33 -3 -77 -23 -41 -27
-131 -7 -158 11 -16 15 -15 55 14 l42 31 -20 25 c-23 29 -25 64 -9 114 16 47
31 57 105 64 35 4 64 10 64 14 0 4 13 8 29 9 30 2 49 -12 31 -23 -5 -3 -15
-16 -22 -28 -10 -20 -8 -19 25 6 43 33 47 33 47 5 0 -30 -88 -114 -103 -99 -9
9 -8 17 1 32 8 12 12 23 9 25 -7 8 -44 -41 -51 -68 -6 -25 -4 -26 24 -23 17 2
47 18 68 34 40 34 45 31 56 -31 4 -21 10 -39 15 -42 20 -13 121 41 121 65 0 4
-14 9 -32 11 -40 4 -51 37 -43 131 5 54 4 67 -8 67 -8 0 -20 -6 -26 -13 -7
-10 -38 -14 -96 -16 -47 0 -104 -8 -128 -16 -56 -19 -58 -19 -51 9 10 43 -16
39 -64 -10z"/>
<path d="M15862 856 c-16 -19 -38 -53 -48 -75 -22 -50 -37 -53 -28 -6 8 43 -2
85 -20 85 -7 0 -24 -9 -38 -19 -19 -15 -34 -18 -66 -14 -29 4 -49 1 -66 -11
-36 -23 -39 -21 -32 19 5 23 3 35 -5 35 -21 0 -69 -34 -70 -50 -2 -42 -9 -81
-26 -145 -29 -104 -12 -146 41 -104 21 17 24 24 16 45 -7 16 -6 32 0 44 5 10
10 30 10 44 0 15 10 33 26 45 23 18 37 20 98 17 l71 -4 1 -48 c2 -70 3 -74 17
-74 20 0 81 69 113 128 16 29 38 55 49 58 24 8 35 22 35 47 0 30 -45 21 -78
-17z"/>
<path d="M16115 883 c-11 -3 -27 -11 -35 -18 -8 -7 -20 -14 -26 -16 -18 -6
-91 -76 -103 -98 -25 -45 -7 -91 35 -91 59 0 181 143 172 201 -3 24 -13 29
-43 22z m-26 -105 c-28 -53 -79 -66 -79 -20 0 45 52 81 78 56 10 -11 10 -18 1
-36z"/>
<path d="M6335 859 c-22 -9 -47 -18 -55 -18 -17 -1 -105 -88 -139 -139 -13
-18 -20 -39 -17 -47 4 -12 10 -12 36 2 27 13 30 19 25 43 -5 23 0 32 33 59 47
36 56 38 49 10 -5 -19 -4 -20 19 -4 34 22 32 3 -11 -86 -52 -110 -47 -135 19
-89 47 32 72 58 63 66 -3 3 -15 0 -27 -6 -32 -17 -34 -7 -6 46 65 126 78 166
59 177 -5 2 -26 -4 -48 -14z"/>
<path d="M7661 869 c-12 -5 -33 -21 -46 -35 -27 -30 -33 -43 -11 -25 8 7 27
11 43 9 45 -5 41 -37 -11 -105 -70 -89 -74 -155 -7 -104 15 12 22 24 18 34 -3
10 15 54 44 107 28 50 49 97 46 104 -7 17 -47 25 -76 15z"/>
<path d="M8348 855 c-21 -28 -23 -42 -6 -47 10 -4 7 -28 -10 -99 -29 -121 -32
-162 -12 -166 17 -4 53 53 44 68 -3 6 -1 22 4 37 6 15 13 47 16 71 3 24 10 49
16 56 6 7 40 15 76 18 83 6 97 19 49 41 -25 12 -48 16 -74 11 -33 -5 -39 -4
-44 14 -7 28 -38 26 -59 -4z"/>
<path d="M13824 852 c-33 -43 -54 -89 -48 -106 3 -9 1 -16 -5 -16 -6 0 -11 -9
-11 -20 0 -11 -20 -66 -45 -122 -25 -56 -45 -112 -45 -125 0 -12 -16 -49 -36
-83 -42 -72 -91 -100 -134 -78 -14 7 -28 14 -32 16 -17 8 -7 -56 11 -72 18
-17 22 -16 73 9 30 14 67 42 83 62 34 44 85 146 85 173 0 32 33 91 48 85 32
-12 95 21 149 79 86 91 146 240 83 206 -11 -6 -30 -8 -43 -5 -29 8 -87 -37
-87 -66 0 -23 13 -25 30 -4 14 17 38 19 60 5 13 -8 12 -13 -4 -42 -28 -50 -57
-78 -95 -94 -75 -32 -85 -10 -37 88 42 86 55 138 35 137 -8 0 -23 -12 -35 -27z"/>
<path d="M2308 859 c-10 -5 -18 -17 -18 -24 0 -8 -4 -15 -10 -15 -14 0 -13
-26 2 -50 10 -15 10 -22 0 -32 -6 -6 -12 -19 -12 -28 0 -9 -11 -38 -24 -66
-22 -46 -24 -74 -5 -74 15 0 58 73 65 110 4 19 18 57 30 84 40 84 27 128 -28
95z"/>
<path d="M2863 821 c-39 -41 -52 -61 -57 -94 -3 -23 -8 -56 -12 -72 -4 -22 0
-37 13 -53 l18 -22 43 20 c50 23 57 50 12 50 -28 0 -30 3 -28 33 1 17 17 63
35 100 19 38 33 73 31 79 -2 5 -27 -13 -55 -41z"/>
<path d="M3128 857 c-7 -8 -24 -17 -38 -20 -14 -4 -30 -10 -35 -14 -22 -16
-105 -121 -105 -132 0 -6 -5 -11 -11 -11 -7 0 -8 -12 -4 -32 19 -91 111 -70
188 44 29 43 37 65 41 116 4 65 -6 79 -36 49z m-18 -107 c0 -33 -44 -90 -70
-90 -51 0 -37 74 21 109 39 24 49 20 49 -19z"/>
<path d="M3393 848 c-11 -13 -26 -44 -33 -70 -7 -27 -16 -48 -21 -48 -4 0 -11
-10 -16 -22 -6 -16 -9 2 -13 62 l-5 84 -31 -30 c-30 -30 -31 -32 -28 -116 2
-91 9 -128 24 -128 13 0 100 118 100 135 0 27 42 85 62 85 13 0 17 4 11 13 -4
6 -6 22 -4 35 1 13 -3 22 -12 22 -7 0 -23 -10 -34 -22z"/>
<path d="M4795 856 c-32 -15 -125 -108 -146 -147 -12 -24 -21 -79 -12 -79 15
0 73 34 73 43 0 6 8 19 18 30 16 19 16 20 -6 8 -12 -7 -27 -9 -33 -5 -12 7 58
84 77 84 14 0 11 -99 -5 -128 -5 -10 -11 -40 -13 -68 -3 -43 -1 -49 17 -52 28
-4 73 44 57 60 -19 19 -14 71 13 152 39 116 32 134 -40 102z"/>
<path d="M5940 862 c-30 -14 -60 -37 -60 -47 0 -6 -10 -15 -22 -20 -21 -9 -23
-16 -22 -83 2 -73 2 -73 -27 -79 -34 -6 -56 -30 -43 -43 18 -18 80 9 112 49
36 45 38 51 17 91 -20 38 -4 75 37 86 18 5 34 19 39 32 9 23 -1 27 -31 14z"/>
<path d="M7892 840 c-29 -16 -63 -41 -75 -57 -11 -15 -27 -32 -34 -36 -26 -16
-44 -66 -33 -87 14 -26 22 -25 54 6 30 30 33 44 11 44 -18 0 -9 22 25 58 32
34 53 29 45 -9 -5 -22 -4 -29 4 -25 16 11 13 -14 -9 -59 -26 -54 -27 -115 -1
-115 21 0 41 44 41 93 0 17 14 52 30 78 36 56 73 71 102 41 18 -18 18 -23 5
-80 -8 -34 -10 -62 -6 -62 5 0 9 4 9 9 0 5 15 27 33 50 17 22 42 54 55 71 13
16 28 30 34 30 12 0 6 -55 -12 -115 -21 -70 -19 -90 10 -90 23 0 26 5 31 52 4
29 14 71 23 93 9 22 16 58 16 80 0 34 -3 40 -21 40 -12 0 -37 -16 -56 -35 -39
-39 -53 -44 -53 -17 0 33 -71 75 -86 51 -9 -15 -61 -10 -68 6 -7 19 -10 18
-74 -15z"/>
<path d="M8737 853 c-18 -9 -27 -20 -23 -29 7 -19 -49 -119 -78 -139 -19 -14
-22 -14 -33 2 -7 9 -13 26 -13 37 -1 19 -4 17 -30 -12 -33 -36 -36 -50 -17
-74 20 -28 50 -24 86 9 19 18 38 30 42 27 4 -2 5 -20 2 -39 -4 -24 -1 -41 9
-53 8 -9 18 -25 21 -35 8 -22 15 -21 55 3 36 22 41 44 15 59 -25 13 -33 130
-15 188 20 61 14 75 -21 56z"/>
<path d="M13600 848 c-19 -13 -38 -36 -43 -53 -9 -29 -44 -75 -57 -75 -3 0 -6
25 -7 56 -1 31 -6 61 -11 66 -13 13 -62 -20 -85 -56 -15 -22 -15 -24 2 -19 26
7 33 -9 38 -85 2 -37 6 -68 8 -71 9 -8 85 79 85 97 1 28 35 66 54 59 17 -7 17
-4 1 -147 -5 -46 8 -69 32 -54 17 10 26 54 36 176 1 15 6 30 10 34 11 12 8 57
-7 77 -17 22 -16 22 -56 -5z"/>
<path d="M1070 845 c-10 -12 -15 -13 -21 -4 -13 22 -54 0 -79 -43 -14 -23 -32
-49 -40 -58 -43 -44 -77 -166 -54 -190 7 -6 114 112 114 126 0 14 28 39 36 31
3 -3 0 -29 -6 -58 -19 -95 -20 -107 -6 -112 7 -3 27 4 44 15 26 16 30 23 22
39 -13 24 -5 122 15 178 8 24 15 54 15 67 0 27 -21 32 -40 9z m-27 -36 c-6 -6
-9 -18 -6 -25 3 -8 0 -14 -6 -14 -6 0 -17 -15 -25 -32 -15 -36 -62 -85 -72
-75 -11 11 6 43 51 92 25 28 45 53 45 58 0 4 5 7 12 7 9 0 9 -3 1 -11z"/>
<path d="M7388 819 c-16 -21 -28 -45 -28 -52 0 -7 -9 -32 -20 -55 -11 -22 -20
-47 -20 -54 0 -7 -11 -34 -25 -60 -14 -26 -25 -61 -25 -78 0 -16 -4 -30 -8
-30 -5 0 -15 -19 -22 -42 -8 -24 -22 -54 -32 -67 -10 -13 -18 -29 -18 -36 0
-18 -50 -49 -80 -49 -15 -1 -25 -7 -25 -16 0 -8 11 -16 25 -18 14 -2 29 -8 34
-13 12 -10 56 28 56 48 0 7 13 41 29 76 16 34 38 81 47 105 13 30 26 45 44 49
51 13 92 50 149 134 62 93 88 146 77 157 -4 3 -25 7 -48 7 -30 0 -45 -6 -59
-24 -27 -33 -24 -44 11 -37 43 8 48 -14 16 -68 -16 -28 -45 -56 -77 -76 -51
-31 -51 -31 -46 -8 10 48 61 174 78 197 11 13 19 30 19 37 0 26 -25 13 -52
-27z"/>
<path d="M14555 844 c-34 -17 -64 -52 -65 -73 0 -11 5 -10 20 4 19 18 20 17
20 -6 0 -13 -9 -43 -20 -66 -23 -51 -36 -128 -22 -137 18 -11 50 39 66 104 9
36 21 69 27 75 5 5 31 10 57 10 39 1 47 4 50 22 3 21 -19 33 -65 33 -17 0 -22
5 -20 21 3 29 -11 32 -48 13z"/>
<path d="M15089 837 c-45 -28 -127 -114 -135 -141 -4 -12 -13 -28 -21 -37 -12
-15 -12 -22 4 -55 20 -42 60 -56 83 -29 11 14 11 21 -4 45 -21 36 -13 80 16
80 32 0 71 26 106 69 58 72 26 116 -49 68z m21 -59 c0 -9 -69 -42 -76 -36 -1
2 9 18 23 36 20 26 28 30 39 21 8 -6 14 -16 14 -21z"/>
<path d="M3537 838 c-9 -7 -18 -22 -20 -33 -2 -11 -18 -50 -35 -87 -35 -73
-37 -84 -22 -93 17 -10 57 42 70 93 7 26 16 52 20 57 13 17 22 75 13 75 -5 0
-17 -6 -26 -12z"/>
<path d="M6083 843 c-12 -2 -26 -17 -33 -34 -7 -16 -16 -29 -21 -29 -4 0 -7
-26 -5 -57 l3 -57 -51 -31 c-28 -16 -52 -38 -54 -49 -4 -16 1 -15 45 9 28 14
64 45 82 68 27 35 31 49 30 89 -3 49 10 74 46 88 20 9 20 9 0 8 -11 0 -30 -3
-42 -5z"/>
<path d="M11292 830 c-29 -18 -33 -25 -28 -46 4 -14 3 -31 -3 -37 -5 -7 -11
-46 -13 -87 l-3 -75 38 -3 c42 -4 64 23 34 40 -21 11 -22 53 -1 135 22 87 18
98 -24 73z"/>
<path d="M11603 837 c-13 -5 -25 -19 -29 -31 -4 -12 -15 -29 -25 -39 -21 -20
-25 -37 -9 -37 7 0 8 -17 4 -48 -11 -86 34 -150 86 -122 20 11 28 40 10 40
-26 0 -40 149 -19 209 13 38 11 42 -18 28z"/>
<path d="M15395 841 c-78 -25 -175 -102 -206 -162 -36 -71 -15 -91 48 -43 39
30 42 43 8 36 -14 -2 -25 0 -25 6 0 31 110 116 127 99 3 -4 -4 -19 -18 -33
-19 -20 -21 -27 -10 -34 12 -7 11 -18 -7 -65 -12 -31 -22 -68 -22 -81 0 -35
31 -31 64 8 28 35 33 54 14 60 -13 5 -5 32 37 123 44 94 43 104 -10 86z"/>
<path d="M4212 833 c-17 -6 -74 -98 -90 -145 -11 -32 -11 -42 3 -68 18 -35 17
-35 55 -15 35 18 37 31 10 60 -21 22 -19 32 24 129 18 41 18 46 -2 39z"/>
<path d="M13234 828 c-17 -4 -39 -17 -50 -29 l-19 -22 31 6 c20 4 39 1 54 -10
21 -15 22 -20 15 -101 l-7 -85 29 21 c35 25 74 103 55 110 -6 2 -12 16 -12 30
0 67 -35 96 -96 80z"/>
<path d="M5699 820 c-9 -5 -20 -21 -23 -35 -3 -13 -17 -41 -31 -61 -25 -37
-33 -60 -17 -50 5 3 7 -16 4 -42 -3 -39 0 -50 18 -67 20 -18 24 -18 48 -4 33
18 42 49 14 49 -27 0 -35 26 -18 63 29 69 46 157 29 157 -5 0 -15 -5 -24 -10z"/>
<path d="M9337 802 c-29 -30 -34 -48 -16 -54 13 -4 -13 -133 -37 -181 -32 -65
-7 -64 28 1 25 48 40 90 43 127 1 11 8 41 16 67 17 63 3 79 -34 40z"/>
<path d="M9502 817 c-13 -15 -11 -39 5 -58 17 -22 23 -80 14 -122 -8 -32 -7
-38 6 -33 8 3 17 6 19 6 2 0 4 9 4 21 0 24 15 54 40 79 9 9 20 24 22 31 3 8 9
11 13 7 4 -4 2 -42 -4 -84 -7 -46 -8 -81 -2 -87 14 -14 48 39 56 89 24 160 10
191 -53 123 -37 -39 -40 -40 -47 -20 -4 13 -15 21 -30 21 -18 0 -22 4 -18 20
6 22 -9 27 -25 7z"/>
<path d="M14092 813 c-26 -22 -40 -73 -21 -73 15 0 56 76 47 85 -3 3 -15 -2
-26 -12z"/>
<path d="M14169 802 c-20 -15 -46 -44 -58 -65 -21 -36 -24 -38 -40 -23 -20 18
-31 12 -31 -16 0 -11 -7 -32 -15 -48 -12 -23 -13 -30 -3 -30 14 1 48 24 48 33
0 3 18 25 39 49 31 33 41 39 46 27 9 -24 -62 -201 -90 -224 -16 -12 -29 -65
-16 -65 24 0 85 105 132 228 17 45 36 85 40 88 14 8 11 74 -3 73 -7 0 -29 -13
-49 -27z"/>
<path d="M14359 807 c-31 -26 -59 -80 -59 -114 0 -13 -11 -46 -25 -74 -26 -54
-25 -72 1 -62 16 6 84 136 84 160 0 8 7 28 16 44 8 17 14 39 12 50 -3 18 -4
18 -29 -4z"/>
<path d="M5589 773 c-51 -55 -84 -106 -93 -145 -6 -25 -4 -28 19 -28 15 0 40
14 63 36 34 33 31 36 -13 18 -11 -5 -15 1 -15 20 0 29 67 106 93 106 8 0 18 7
21 16 9 23 8 24 -13 24 -10 0 -38 -21 -62 -47z"/>
<path d="M8594 794 c19 -19 30 -25 33 -16 3 6 11 12 19 12 8 0 14 5 14 10 0 6
-13 10 -29 10 -16 0 -37 3 -47 7 -13 5 -9 -3 10 -23z"/>
<path d="M10275 783 c7 -14 20 -30 27 -34 10 -7 10 -11 -3 -21 -19 -15 -51
-63 -66 -98 -7 -18 -7 -37 4 -72 13 -45 16 -48 47 -48 33 0 53 15 75 57 11 21
10 22 -19 17 -37 -8 -60 9 -60 45 1 36 29 69 66 77 25 5 32 2 41 -19 7 -14 9
-34 6 -46 -3 -12 -1 -21 4 -21 11 0 33 94 23 98 -4 2 -3 16 3 32 6 16 8 32 4
36 -3 4 -36 7 -72 7 -36 0 -65 3 -65 8 0 5 -6 9 -14 9 -13 0 -13 -4 -1 -27z"/>
<path d="M10487 787 c-23 -28 -18 -59 11 -72 18 -8 22 -18 23 -55 1 -52 3 -64
18 -104 l12 -29 29 28 c16 16 28 30 26 33 -2 2 7 28 20 58 13 30 24 60 24 66
0 6 6 19 14 27 8 9 18 28 21 44 6 23 4 27 -13 27 -12 0 -23 -9 -27 -20 -3 -11
-10 -20 -14 -20 -5 0 -11 -19 -15 -42 -9 -59 -26 -108 -37 -108 -9 0 -13 15
-10 34 8 42 1 77 -24 114 -15 23 -30 42 -34 42 -3 0 -14 -10 -24 -23z"/>
<path d="M5251 791 c-7 -5 -11 -15 -9 -22 3 -10 8 -7 17 9 13 24 12 26 -8 13z"/>
<path d="M10780 770 c-19 -20 -30 -43 -30 -60 0 -43 17 -45 34 -5 13 31 19 35
38 29 58 -18 68 -32 68 -100 0 -75 13 -82 50 -26 13 20 29 43 34 51 9 11 7 13
-12 7 -21 -7 -22 -5 -22 42 0 60 -21 82 -84 89 -42 5 -48 3 -76 -27z"/>
<path d="M11042 772 c-58 -62 -88 -120 -38 -72 45 41 65 10 57 -92 -3 -38 17
-44 48 -14 18 19 23 29 14 34 -8 5 -12 30 -11 67 2 59 -13 105 -33 105 -6 0
-23 -13 -37 -28z"/>
<path d="M11484 774 c-77 -51 -122 -115 -109 -155 9 -26 37 -24 63 4 22 24 28
38 15 36 -19 -3 -33 2 -33 11 0 24 47 72 87 90 24 10 43 24 43 29 0 18 -25 12
-66 -15z"/>
<path d="M9465 780 c-3 -5 -2 -10 4 -10 5 0 13 5 16 10 3 6 2 10 -4 10 -5 0
-13 -4 -16 -10z"/>
<path d="M12389 777 c-9 -7 -20 -23 -24 -37 -4 -14 -18 -45 -30 -70 -39 -74
-51 -118 -37 -132 19 -19 81 53 75 87 -4 16 5 49 22 86 27 61 24 88 -6 66z"/>
<path d="M10045 747 c-4 -15 -13 -27 -19 -27 -7 0 -23 -11 -35 -24 l-22 -23
23 -6 c14 -4 30 0 43 11 21 18 115 55 131 51 5 -1 22 4 37 11 20 10 24 16 15
22 -21 13 -65 9 -78 -7 -13 -16 -70 -10 -82 9 -4 5 -10 -2 -13 -17z"/>
<path d="M6376 683 c-6 -14 -5 -15 5 -6 7 7 10 15 7 18 -3 3 -9 -2 -12 -12z"/>
<path d="M11480 680 c0 -5 7 -7 15 -4 8 4 15 8 15 10 0 2 -7 4 -15 4 -8 0 -15
-4 -15 -10z"/>
<path d="M9991 616 c-15 -24 -20 -43 -15 -61 3 -14 8 -24 10 -22 6 6 33 111
29 115 -1 2 -12 -13 -24 -32z"/>
<path d="M9952 478 c-11 -40 -2 -61 11 -27 15 37 18 59 7 59 -5 0 -13 -15 -18
-32z"/>
<path d="M12720 479 c-6 -11 -9 -25 -6 -32 2 -7 5 -5 5 4 1 9 8 19 16 23 8 3
15 10 15 16 0 17 -19 11 -30 -11z"/>
<path d="M12670 388 c-11 -18 -25 -41 -32 -52 -19 -27 -128 -96 -153 -96 -11
0 -26 -5 -32 -11 -5 -5 -33 -11 -61 -11 -45 -1 -51 -4 -57 -26 -3 -14 -2 -28
2 -32 9 -9 119 19 178 45 91 40 169 120 187 193 9 33 -9 27 -32 -10z"/>
<path d="M9895 339 c-34 -48 -75 -72 -118 -67 -28 3 -32 0 -35 -23 -4 -38 18
-53 64 -40 37 10 84 46 84 65 0 5 10 29 21 53 28 58 19 64 -16 12z"/>
</g>
</svg>
